<svg xmlns="http://www.w3.org/2000/svg" width="363" height="320" viewBox="0 0 363 320" version="1.1"><path d="M 149.437 20.250 L 146.500 23.500 149.750 20.563 C 152.779 17.825, 153.460 17, 152.687 17 C 152.515 17, 151.052 18.462, 149.437 20.250 M 166.270 18.054 C 160.805 19.133, 153.879 22.215, 152.112 24.356 C 149.342 27.712, 154.899 31.156, 165.884 32.893 C 170.486 33.620, 171.106 33.488, 172.407 31.502 C 174.571 28.199, 179.289 26.556, 182.947 27.832 C 186.612 29.109, 186.944 28.656, 186.404 23.104 L 185.979 18.739 192.197 19.443 C 200.506 20.383, 208.412 23.185, 208.826 25.338 C 209.260 27.589, 202.420 30.596, 194.737 31.532 C 191.567 31.918, 188.728 32.631, 188.428 33.117 C 187.665 34.351, 189.330 34.234, 198.554 32.403 C 207.895 30.549, 212.097 28.049, 210.423 25.342 C 208.387 22.051, 204.488 19.991, 197.500 18.514 C 190.008 16.931, 173.214 16.683, 166.270 18.054 M 96.667 26.667 C 96.300 27.033, 96 28.158, 96 29.167 C 96 30.456, 96.742 31, 98.500 31 C 100.500 31, 101 30.500, 101 28.500 C 101 26.742, 100.456 26, 99.167 26 C 98.158 26, 97.033 26.300, 96.667 26.667 M 103.667 26.667 C 102.764 27.570, 102.821 30.771, 103.750 31.345 C 104.162 31.600, 104.500 30.502, 104.500 28.905 C 104.500 27.307, 104.463 26, 104.417 26 C 104.371 26, 104.033 26.300, 103.667 26.667 M 275.461 28.761 L 275.500 31.500 258.750 31.774 C 244.774 32.003, 242 32.293, 242 33.524 C 242 34.767, 244.666 35, 258.889 35 L 275.777 35 276.458 31.370 C 276.833 29.373, 276.753 27.353, 276.281 26.881 C 275.804 26.404, 275.440 27.237, 275.461 28.761 M 177.334 32.250 C 174.936 36.075, 176.474 41, 180.066 41 C 181.938 41, 185 37.493, 185 35.349 C 185 32.018, 179 29.593, 177.334 32.250 M 231.345 32.543 C 231.019 33.392, 231.034 34.367, 231.376 34.710 C 231.719 35.053, 232 34.613, 232 33.733 C 232 32.755, 233.069 31.971, 234.750 31.716 L 237.500 31.300 234.719 31.150 C 233.028 31.059, 231.705 31.605, 231.345 32.543 M 206.583 33.741 C 202.252 36.010, 193.783 38.047, 191.500 37.369 C 190.225 36.990, 189.862 37.117, 190.500 37.719 C 192.686 39.783, 199.709 40.994, 204.402 40.117 C 209.897 39.091, 209.545 39.379, 210.331 35.250 C 211.018 31.644, 210.773 31.545, 206.583 33.741 M 118.768 34.725 C 120.565 34.947, 123.265 34.943, 124.768 34.715 C 126.271 34.486, 124.800 34.304, 121.500 34.310 C 118.200 34.315, 116.971 34.502, 118.768 34.725 M 177 36.386 C 177 37.200, 177.934 38.162, 179.075 38.524 C 182.050 39.468, 182.174 38.777, 179.402 36.703 C 177.425 35.224, 177 35.168, 177 36.386 M 187.333 43.405 C 187.333 44.177, 187.933 44.579, 188.667 44.298 C 189.400 44.016, 190 44.311, 190 44.952 C 190 45.593, 190.384 45.881, 190.853 45.591 C 191.322 45.301, 192.559 45.710, 193.603 46.500 C 194.909 47.489, 195.069 47.946, 194.116 47.968 C 191.472 48.029, 185.069 45.698, 185.585 44.863 C 185.870 44.401, 185.386 44.298, 184.509 44.635 C 183.632 44.972, 183.146 45.479, 183.430 45.763 C 183.982 46.316, 179.902 48.798, 173.657 51.709 L 169.813 53.500 170.417 64 C 170.749 69.775, 171.304 78.952, 171.650 84.393 L 172.278 94.287 169.389 93.573 C 167.343 93.067, 166.806 93.171, 167.549 93.928 C 169.442 95.859, 183.875 97.111, 190.465 95.916 C 196.922 94.745, 203 92.550, 203 91.390 C 203 89.945, 208.046 50.415, 208.539 48 C 209.048 45.503, 209.040 45.500, 201.231 45.500 C 195.468 45.500, 192.710 45.040, 190.741 43.750 C 187.517 41.637, 187.333 41.619, 187.333 43.405 M 229.750 43.662 C 230.438 43.940, 231.563 43.940, 232.250 43.662 C 232.938 43.385, 232.375 43.158, 231 43.158 C 229.625 43.158, 229.063 43.385, 229.750 43.662 M 108.269 50.693 C 109.242 50.947, 110.592 50.930, 111.269 50.656 C 111.946 50.382, 111.150 50.175, 109.500 50.195 C 107.850 50.215, 107.296 50.439, 108.269 50.693 M 122.269 50.693 C 123.242 50.947, 124.592 50.930, 125.269 50.656 C 125.946 50.382, 125.150 50.175, 123.500 50.195 C 121.850 50.215, 121.296 50.439, 122.269 50.693 M 241.750 50.732 C 244.088 50.943, 247.912 50.943, 250.250 50.732 C 252.588 50.522, 250.675 50.349, 246 50.349 C 241.325 50.349, 239.412 50.522, 241.750 50.732 M 231.750 51.662 C 232.438 51.940, 233.563 51.940, 234.250 51.662 C 234.938 51.385, 234.375 51.158, 233 51.158 C 231.625 51.158, 231.063 51.385, 231.750 51.662 M 59.762 54.707 C 61.006 54.946, 62.806 54.937, 63.762 54.687 C 64.718 54.437, 63.700 54.241, 61.500 54.252 C 59.300 54.263, 58.518 54.468, 59.762 54.707 M 101.264 56.567 C 90.694 58.884, 86.036 62.330, 88.146 66.272 C 89.267 68.367, 92.264 69.721, 99.875 71.571 L 105.250 72.878 108.493 69.439 C 112.793 64.879, 116.924 64.770, 121.253 69.100 C 124.019 71.865, 124.793 72.131, 128.427 71.571 C 138.662 69.994, 145.965 65.957, 144.673 62.590 C 142.399 56.663, 116.942 53.132, 101.264 56.567 M 231.440 56.835 C 222.504 58.704, 217.712 61.227, 218.189 63.813 C 218.640 66.260, 228.187 70.754, 234.649 71.562 C 239.798 72.205, 240.386 72.064, 242.633 69.640 C 247.144 64.775, 253.905 64.930, 256.795 69.965 C 258.709 73.301, 260.613 73.251, 270 69.618 C 274.936 67.707, 275.500 67.188, 275.500 64.551 C 275.500 60.610, 271.359 58.254, 261.271 56.455 C 251.070 54.637, 241.358 54.760, 231.440 56.835 M 277 57.500 C 278.292 58.875, 279.574 60, 279.849 60 C 280.124 60, 279.292 58.875, 278 57.500 C 276.708 56.125, 275.426 55, 275.151 55 C 274.876 55, 275.708 56.125, 277 57.500 M 70.500 58 C 71.495 59.100, 72.535 60, 72.810 60 C 73.085 60, 72.495 59.100, 71.500 58 C 70.505 56.900, 69.465 56, 69.190 56 C 68.915 56, 69.505 56.900, 70.500 58 M 54.479 63.265 C 50.938 66.310, 50.431 72.348, 53.678 72.810 C 55.396 73.055, 55.924 72.548, 56.178 70.411 C 56.589 66.951, 59.322 65.085, 61.750 66.607 C 65.240 68.795, 64.314 71.500, 57.552 78.869 C 53.948 82.796, 51 86.681, 51 87.504 C 51 88.712, 52.603 89, 59.333 89 C 63.917 89, 67.918 88.749, 68.225 88.442 C 68.531 88.135, 68.554 87.010, 68.275 85.942 C 67.877 84.421, 66.885 84, 63.696 84 L 59.626 84 62.160 81.250 C 66.677 76.347, 68 73.634, 68 69.277 C 68 66.333, 67.377 64.377, 66 63 C 63.256 60.256, 57.832 60.380, 54.479 63.265 M 73.389 73.500 C 73.390 80.650, 73.550 83.444, 73.742 79.708 C 73.935 75.973, 73.934 70.123, 73.739 66.708 C 73.545 63.294, 73.387 66.350, 73.389 73.500 M 304.217 64.513 C 306.261 66.651, 308.095 68.198, 308.294 67.950 C 308.492 67.703, 306.819 65.953, 304.577 64.063 L 300.500 60.626 304.217 64.513 M 165.351 69 C 165.698 72.025, 166.043 76.300, 166.116 78.500 C 166.243 82.305, 166.287 82.243, 167.017 77.239 C 167.755 72.175, 166.962 65.567, 165.447 64.171 C 165.047 63.802, 165.004 65.975, 165.351 69 M 314.494 69.007 C 312.114 71.490, 311.846 72.229, 312.953 73.257 C 314.029 74.255, 314.144 74.237, 313.537 73.169 C 313.064 72.335, 313.827 70.746, 315.578 68.919 C 317.116 67.313, 318.149 66, 317.874 66 C 317.599 66, 316.078 67.353, 314.494 69.007 M 111.571 71.571 C 109.647 73.496, 109.587 75.053, 111.344 77.456 C 113.243 80.053, 117.757 78.817, 118.596 75.472 C 119.758 70.844, 114.962 68.181, 111.571 71.571 M 246.897 72.750 C 246.232 74.488, 246.188 76.052, 246.779 77 C 248.930 80.451, 254 78.750, 254 74.578 C 254 69.670, 248.608 68.282, 246.897 72.750 M 139.500 72.511 C 137.850 73.252, 133.575 74.398, 130 75.057 C 124.459 76.078, 123.204 76.713, 121.494 79.356 C 118.840 83.456, 115.222 84.706, 111.417 82.835 C 108.782 81.539, 108.245 81.585, 105.861 83.307 C 104.176 84.523, 100.824 85.405, 96.595 85.744 L 89.968 86.276 90.644 91.388 C 91.015 94.200, 92.485 103.453, 93.910 111.950 L 96.500 127.401 101.334 129.878 C 110.427 134.540, 131.220 132.954, 136.260 127.214 C 137.300 126.030, 138.730 117.616, 140.885 100 C 142.600 85.975, 144.003 73.713, 144.002 72.750 C 144 70.716, 143.547 70.692, 139.500 72.511 M 220 72.797 C 220 73.921, 220.903 81.288, 222.006 89.170 C 223.109 97.051, 224.481 107.100, 225.055 111.500 C 226.826 125.079, 226.967 125.623, 229.265 127.678 C 230.494 128.777, 233.038 130.285, 234.919 131.029 C 239.395 132.801, 254.241 132.866, 260.179 131.140 C 267.590 128.986, 268.443 127.390, 270.408 112 C 271.356 104.575, 272.552 96.055, 273.066 93.066 C 274.404 85.283, 274.534 85.508, 268.636 85.425 C 265.254 85.378, 261.788 84.570, 259.218 83.231 C 255.711 81.403, 254.988 81.310, 253.954 82.556 C 251.238 85.828, 243.807 83.253, 241.962 78.399 C 241.340 76.763, 240.266 76, 238.587 76 C 235.012 76, 222.734 73.024, 221.259 71.800 C 220.317 71.018, 220 71.269, 220 72.797 M 273.756 72.116 C 272.807 72.648, 268.760 73.926, 264.765 74.956 L 257.500 76.830 261.340 78.466 C 263.583 79.422, 267.102 79.977, 269.800 79.801 C 274.292 79.508, 274.442 79.392, 275.226 75.599 C 276.163 71.061, 276.064 70.825, 273.756 72.116 M 88.564 75.329 C 88.942 77.073, 89.757 78.860, 90.376 79.300 C 91.934 80.410, 101.328 79.438, 104.164 77.874 C 106.410 76.635, 106.326 76.558, 102 75.867 C 99.525 75.472, 95.335 74.476, 92.688 73.654 L 87.876 72.158 88.564 75.329 M 111.032 74.050 C 111.014 74.902, 111.540 76.140, 112.200 76.800 C 113.656 78.256, 116 78.380, 116 77 C 116 76.450, 115.487 76, 114.860 76 C 114.233 76, 113.123 75.213, 112.392 74.250 C 111.274 72.777, 111.059 72.746, 111.032 74.050 M 298.924 75.750 L 296.500 78.500 299.250 76.076 C 300.762 74.742, 302 73.505, 302 73.326 C 302 72.541, 301.190 73.180, 298.924 75.750 M 247 74.972 C 247 76.464, 250.066 78.334, 250.992 77.408 C 251.536 76.864, 250.917 76.036, 249.450 75.344 C 248.102 74.708, 247 74.541, 247 74.972 M 308 76.313 C 308 76.485, 309.462 77.948, 311.250 79.563 L 314.500 82.500 311.563 79.250 C 308.825 76.221, 308 75.540, 308 76.313 M 303.924 79.750 L 301.500 82.500 304.250 80.076 C 305.762 78.742, 307 77.505, 307 77.326 C 307 76.541, 306.190 77.180, 303.924 79.750 M 84.158 86 C 84.158 87.375, 84.385 87.938, 84.662 87.250 C 84.940 86.563, 84.940 85.438, 84.662 84.750 C 84.385 84.063, 84.158 84.625, 84.158 86 M 307.750 85.662 C 308.438 85.940, 309.563 85.940, 310.250 85.662 C 310.938 85.385, 310.375 85.158, 309 85.158 C 307.625 85.158, 307.063 85.385, 307.750 85.662 M 321.750 85.662 C 322.438 85.940, 323.563 85.940, 324.250 85.662 C 324.938 85.385, 324.375 85.158, 323 85.158 C 321.625 85.158, 321.063 85.385, 321.750 85.662 M 313.500 88 C 314.495 89.100, 315.535 90, 315.810 90 C 316.085 90, 315.495 89.100, 314.500 88 C 313.505 86.900, 312.465 86, 312.190 86 C 311.915 86, 312.505 86.900, 313.500 88 M 278.158 89 C 278.158 90.375, 278.385 90.938, 278.662 90.250 C 278.940 89.563, 278.940 88.438, 278.662 87.750 C 278.385 87.063, 278.158 87.625, 278.158 89 M 72.731 92.920 C 72.296 94.583, 72.426 94.974, 73.168 94.232 C 73.750 93.650, 74.028 92.585, 73.788 91.863 C 73.538 91.114, 73.085 91.568, 72.731 92.920 M 84.825 93.326 C 84.452 95.151, 84.592 95.808, 85.218 95.182 C 85.751 94.649, 86.011 93.377, 85.794 92.356 C 85.503 90.981, 85.251 91.233, 84.825 93.326 M 308.194 92.206 C 307.258 93.142, 307.813 94.249, 310.699 97.204 L 314.406 101 310.741 104.753 C 308.044 107.516, 307.320 108.899, 307.997 109.996 C 308.754 111.219, 309.641 110.780, 312.959 107.540 L 317 103.594 320.966 107.467 C 324.363 110.784, 325.028 111.091, 325.598 109.604 C 326.052 108.423, 325.263 106.835, 323.132 104.636 C 319.350 100.734, 319.290 100.016, 322.500 97 C 325.068 94.587, 325.816 92, 323.946 92 C 323.366 92, 321.468 93.330, 319.728 94.957 C 317.988 96.583, 316.318 97.595, 316.016 97.207 C 315.715 96.818, 314.102 95.264, 312.432 93.752 C 310.068 91.613, 309.129 91.271, 308.194 92.206 M 300.269 98.693 C 301.242 98.947, 302.592 98.930, 303.269 98.656 C 303.946 98.382, 303.150 98.175, 301.500 98.195 C 299.850 98.215, 299.296 98.439, 300.269 98.693 M 77.924 102.750 L 75.500 105.500 78.250 103.076 C 80.820 100.810, 81.459 100, 80.674 100 C 80.495 100, 79.258 101.237, 77.924 102.750 M 284 102.500 C 285.292 103.875, 286.574 105, 286.849 105 C 287.124 105, 286.292 103.875, 285 102.500 C 283.708 101.125, 282.426 100, 282.151 100 C 281.876 100, 282.708 101.125, 284 102.500 M 331.195 109.500 C 331.215 111.150, 331.439 111.704, 331.693 110.731 C 331.947 109.758, 331.930 108.408, 331.656 107.731 C 331.382 107.054, 331.175 107.850, 331.195 109.500 M 156.110 111.396 C 153.294 112.956, 151.085 116.593, 151.035 119.750 C 151.006 121.591, 151.545 122, 154 122 C 157.317 122, 157.821 123.074, 155.434 125.055 C 153.970 126.269, 151 131.224, 151 132.450 C 151 133.512, 169.874 133.013, 170.541 131.933 C 171.573 130.263, 170.780 130.011, 163.673 129.747 C 160.013 129.611, 157.014 129.197, 157.009 128.827 C 157.004 128.456, 158.125 126.816, 159.500 125.182 C 162.143 122.041, 162.686 119.542, 160.956 118.473 C 160.382 118.118, 159.238 118.387, 158.414 119.072 C 157.229 120.055, 156.662 120.058, 155.708 119.087 C 154.761 118.124, 155.010 117.441, 156.861 115.929 C 159.749 113.569, 162.799 113.470, 165.891 115.636 C 167.851 117.009, 168.144 117.893, 167.709 121.136 C 167.242 124.612, 167.412 125, 169.400 125 C 171.387 125, 171.594 124.529, 171.452 120.326 C 171.321 116.446, 170.757 115.172, 168.131 112.826 C 164.631 109.698, 160.137 109.164, 156.110 111.396 M 199.288 112.966 C 191.011 118.013, 194.670 131.341, 204.703 132.687 C 209.557 133.338, 212.459 131.936, 215.050 127.686 C 221.527 117.063, 210.089 106.380, 199.288 112.966 M 313.668 113.609 C 312.139 114.924, 311.294 116, 311.789 116 C 312.285 116, 313.511 115.093, 314.514 113.984 L 316.338 111.969 318.665 114.155 C 319.945 115.357, 321.160 116.152, 321.364 115.921 C 321.569 115.689, 320.546 114.537, 319.092 113.359 L 316.447 111.218 313.668 113.609 M 30.879 113.279 C 31.362 113.762, 33.049 113.995, 34.628 113.798 C 37.272 113.468, 37.202 113.399, 33.751 112.921 C 31.601 112.623, 30.376 112.776, 30.879 113.279 M 302 112.711 C 302 113.285, 302.788 114.373, 303.750 115.128 C 305.369 116.397, 305.390 116.350, 304.033 114.500 C 303.226 113.400, 302.439 112.313, 302.283 112.083 C 302.127 111.854, 302 112.137, 302 112.711 M 41.269 113.693 C 42.242 113.947, 43.592 113.930, 44.269 113.656 C 44.946 113.382, 44.150 113.175, 42.500 113.195 C 40.850 113.215, 40.296 113.439, 41.269 113.693 M 18.269 114.693 C 19.242 114.947, 20.592 114.930, 21.269 114.656 C 21.946 114.382, 21.150 114.175, 19.500 114.195 C 17.850 114.215, 17.296 114.439, 18.269 114.693 M 346.500 120 C 346.500 121.545, 346.837 122.600, 347.250 122.345 C 347.663 122.091, 348 121.035, 348 120 C 348 118.965, 347.663 117.909, 347.250 117.655 C 346.837 117.400, 346.500 118.455, 346.500 120 M 205 119.140 C 205 119.767, 204.213 120.877, 203.250 121.608 C 201.624 122.842, 201.654 122.939, 203.677 122.968 C 204.890 122.986, 206.056 123.774, 206.311 124.750 C 206.746 126.417, 206.774 126.417, 206.884 124.750 C 206.953 123.705, 207.806 123, 209 123 C 210.100 123, 211 122.564, 211 122.031 C 211 121.499, 210.298 121.332, 209.440 121.661 C 208.399 122.061, 207.696 121.553, 207.324 120.130 C 206.742 117.905, 205 117.163, 205 119.140 M 297.872 120.250 C 298.720 121.330, 300.442 121.943, 302.372 121.850 L 305.500 121.700 302.500 121.262 C 300.850 121.020, 298.825 120.300, 298 119.662 C 296.695 118.651, 296.678 118.727, 297.872 120.250 M 32.269 123.693 C 33.242 123.947, 34.592 123.930, 35.269 123.656 C 35.946 123.382, 35.150 123.175, 33.500 123.195 C 31.850 123.215, 31.296 123.439, 32.269 123.693 M 41.762 123.707 C 43.006 123.946, 44.806 123.937, 45.762 123.687 C 46.718 123.437, 45.700 123.241, 43.500 123.252 C 41.300 123.263, 40.518 123.468, 41.762 123.707 M 341.750 123.662 C 342.438 123.940, 343.563 123.940, 344.250 123.662 C 344.938 123.385, 344.375 123.158, 343 123.158 C 341.625 123.158, 341.063 123.385, 341.750 123.662 M 340.459 127.067 C 340.096 127.653, 340.070 128.403, 340.400 128.733 C 340.730 129.063, 341 128.841, 341 128.240 C 341 127.639, 341.788 126.941, 342.750 126.689 C 344.328 126.277, 344.334 126.221, 342.809 126.116 C 341.879 126.052, 340.821 126.480, 340.459 127.067 M 18.269 127.693 C 19.242 127.947, 20.592 127.930, 21.269 127.656 C 21.946 127.382, 21.150 127.175, 19.500 127.195 C 17.850 127.215, 17.296 127.439, 18.269 127.693 M 279.200 128.200 C 278.540 128.860, 278 131.785, 278 134.700 C 278 139.511, 278.208 140.006, 280.250 140.063 L 282.500 140.127 280.250 141.031 C 278.402 141.774, 278 142.710, 278 146.268 C 278 150.744, 279.304 153, 281.891 153 C 283.108 153, 283.072 152.770, 281.695 151.750 C 280.168 150.619, 280.150 150.228, 281.504 147.636 C 283.289 144.219, 283.361 143.659, 281.900 144.562 C 281.127 145.039, 281.138 144.611, 281.935 143.121 C 283.308 140.555, 284.170 140.327, 283.333 142.750 C 282.956 143.842, 283.955 143.317, 285.989 141.356 C 287.892 139.521, 288.948 137.725, 288.525 137.041 C 287.995 136.183, 287.338 136.289, 286.070 137.437 C 283.939 139.366, 282.713 138.404, 284.070 135.869 C 285.198 133.762, 288.986 133.386, 290.800 135.200 C 292.675 137.075, 292.223 139.442, 289.500 142 C 288.125 143.292, 287 144.668, 287 145.058 C 287 146.080, 291.574 146.804, 294.500 146.245 C 297.468 145.677, 297.880 143, 295 143 C 293.900 143, 293 142.509, 293 141.910 C 293 140.056, 298.421 133.044, 299.872 133.021 C 300.954 133.005, 300.898 133.475, 299.608 135.250 C 296.866 139.020, 296.678 140.044, 298.483 141.364 C 300.877 143.115, 300.088 145.797, 296.325 148.695 L 293.151 151.140 293.689 148.820 L 294.228 146.500 292.587 148.708 C 291.531 150.128, 290.330 150.700, 289.223 150.311 C 287.849 149.828, 287.744 149.969, 288.702 151.005 C 289.459 151.823, 292.613 152.341, 297.202 152.402 L 304.500 152.500 305.360 141.236 C 306.011 132.714, 305.921 129.609, 304.988 128.486 C 303.391 126.561, 281.085 126.315, 279.200 128.200 M 35.762 128.707 C 37.006 128.946, 38.806 128.937, 39.762 128.687 C 40.718 128.437, 39.700 128.241, 37.500 128.252 C 35.300 128.263, 34.518 128.468, 35.762 128.707 M 70.306 130.414 C 67.911 132.474, 67.526 133.508, 67.676 137.476 C 67.884 142.969, 69.856 146.357, 74.131 148.568 C 77.589 150.356, 82.236 149.924, 85.708 147.492 C 90.353 144.239, 91.069 134.069, 86.944 129.944 C 83.918 126.918, 74.045 127.197, 70.306 130.414 M 30.655 135.250 C 30.909 135.662, 34.440 136, 38.500 136 C 42.560 136, 46.091 135.662, 46.345 135.250 C 46.600 134.838, 43.070 134.500, 38.500 134.500 C 33.930 134.500, 30.400 134.838, 30.655 135.250 M 76 135 C 76 135.550, 76.900 136, 78 136 C 79.467 136, 80 136.667, 80 138.500 C 80 140.333, 79.467 141, 78 141 C 76.900 141, 76 141.450, 76 142 C 76 143.552, 80.608 143.178, 81.989 141.513 C 82.715 140.639, 82.906 139.298, 82.454 138.263 C 82.031 137.293, 81.775 135.938, 81.886 135.250 C 82.010 134.480, 80.920 134, 79.044 134 C 77.370 134, 76 134.450, 76 135 M 300.702 141.667 C 300.984 142.400, 301.343 143, 301.500 143 C 301.657 143, 302.016 142.400, 302.298 141.667 C 302.579 140.933, 302.220 140.333, 301.500 140.333 C 300.780 140.333, 300.421 140.933, 300.702 141.667 M 171.963 143.069 C 170.514 145.777, 171.743 157.542, 173.640 159.116 C 175.183 160.397, 185.229 161.180, 184.476 159.960 C 184.220 159.547, 184.712 158.941, 185.569 158.612 C 186.440 158.278, 186.810 157.502, 186.409 156.853 C 185.959 156.125, 186.128 155.961, 186.862 156.415 C 187.506 156.813, 187.774 157.557, 187.457 158.069 C 187.141 158.581, 187.250 159, 187.700 159 C 189.057 159, 190.694 155.649, 190.508 153.250 C 190.413 152.012, 190.765 151, 191.292 151 C 192.704 151, 191.253 144.937, 189.333 142.816 C 188.031 141.377, 186.173 141, 180.380 141 C 174.012 141, 172.928 141.267, 171.963 143.069 M 214.870 148.731 C 211.224 151.904, 206.666 155.713, 204.742 157.196 C 202.322 159.060, 201.031 161.020, 200.557 163.548 C 200.180 165.559, 200.121 167.454, 200.426 167.759 C 200.731 168.064, 204.853 165.736, 209.586 162.586 C 214.320 159.436, 218.361 157.028, 218.567 157.234 C 219.308 157.975, 209.499 171.664, 202.631 179.473 C 192.252 191.273, 187.581 195.338, 176.388 202.311 C 167.844 207.634, 161.864 210.478, 145.500 217.001 C 144.400 217.439, 161.162 217.830, 182.750 217.868 L 222 217.939 222 187.469 C 222 170.711, 222.338 157.020, 222.750 157.045 C 223.162 157.070, 225.975 160.431, 229 164.514 C 236.293 174.357, 239 175.386, 239 168.318 C 239 164.479, 234.143 156.887, 225.830 147.731 L 221.500 142.961 214.870 148.731 M 20.250 146.735 C 22.862 146.941, 27.137 146.941, 29.750 146.735 C 32.362 146.529, 30.225 146.360, 25 146.360 C 19.775 146.360, 17.637 146.529, 20.250 146.735 M 178 146.934 C 178 147.520, 178.825 148, 179.833 148 C 181.206 148, 181.667 148.758, 181.667 151.014 C 181.667 153.549, 181.356 153.930, 179.715 153.410 C 178.344 152.975, 177.896 153.193, 178.209 154.145 C 178.837 156.057, 183.875 156.488, 184.566 154.689 C 184.871 153.894, 184.730 151.727, 184.252 149.872 C 183.572 147.227, 182.804 146.432, 180.692 146.184 C 179.211 146.010, 178 146.347, 178 146.934 M 325.462 151.250 L 320.500 156.500 325.750 151.538 C 330.628 146.926, 331.459 146, 330.712 146 C 330.554 146, 328.192 148.363, 325.462 151.250 M 100.500 147.945 C 96.972 149.389, 94.784 152.759, 94.484 157.208 C 93.983 164.639, 81.541 191.578, 75.759 197.750 C 74.600 198.988, 73.903 200, 74.211 200 C 74.518 200, 73.263 201.645, 71.422 203.655 C 69.580 205.665, 68.309 207.690, 68.596 208.155 C 68.883 208.620, 68.529 209.020, 67.809 209.045 C 67.089 209.069, 64.388 210.982, 61.807 213.295 L 57.114 217.500 68.057 217.188 L 79 216.875 79 209.271 C 79 205.089, 79.246 201.913, 79.547 202.214 C 79.848 202.515, 80.105 205.965, 80.117 209.881 L 80.140 217 91.070 217 L 102 217 102.030 209.250 C 102.049 204.520, 102.389 202.085, 102.902 203 C 103.365 203.825, 103.689 207.312, 103.622 210.750 L 103.500 217 108.545 217 L 113.590 217 113.766 205.362 C 113.863 198.961, 114.181 193.486, 114.471 193.195 C 114.762 192.905, 115 198.116, 115 204.776 L 115 216.886 127.369 217.193 L 139.738 217.500 135.535 212 C 129.499 204.100, 123.037 193.004, 117.774 181.500 C 111.310 167.370, 109.693 161.936, 110.962 158.600 C 112.358 154.927, 109.994 149.328, 106.483 147.994 C 103.469 146.848, 103.188 146.845, 100.500 147.945 M 341 153.500 C 342.866 155.425, 344.617 157, 344.892 157 C 345.167 157, 343.866 155.425, 342 153.500 C 340.134 151.575, 338.383 150, 338.108 150 C 337.833 150, 339.134 151.575, 341 153.500 M 16.750 151.706 C 17.988 151.944, 20.012 151.944, 21.250 151.706 C 22.488 151.467, 21.475 151.272, 19 151.272 C 16.525 151.272, 15.512 151.467, 16.750 151.706 M 29.762 151.707 C 31.006 151.946, 32.806 151.937, 33.762 151.687 C 34.718 151.437, 33.700 151.241, 31.500 151.252 C 29.300 151.263, 28.518 151.468, 29.762 151.707 M 17.762 153.707 C 19.006 153.946, 20.806 153.937, 21.762 153.687 C 22.718 153.437, 21.700 153.241, 19.500 153.252 C 17.300 153.263, 16.518 153.468, 17.762 153.707 M 29.250 153.689 C 30.212 153.941, 31.788 153.941, 32.750 153.689 C 33.712 153.438, 32.925 153.232, 31 153.232 C 29.075 153.232, 28.288 153.438, 29.250 153.689 M 255.455 155.455 C 253.781 157.128, 253 159.026, 253 161.418 C 253 164.457, 251.140 170.517, 248.064 177.500 C 245.326 183.716, 240.748 193.079, 238.538 196.985 C 237.142 199.451, 236 202.939, 236 204.735 C 236 207.986, 236.021 208, 241 208 L 246 208 246 203.500 L 246 199 257.500 199 L 269 199 269 195.500 L 269 192 258.066 192 L 247.133 192 246.716 194.750 L 246.300 197.500 246.150 194.750 C 246.051 192.934, 245.406 191.939, 244.250 191.820 C 243.287 191.721, 245.875 191.383, 250 191.070 L 257.500 190.500 257.650 186.750 L 257.800 183 252.150 182.837 L 246.500 182.674 252 182.087 L 257.500 181.500 257.500 178.010 C 257.500 174.924, 257.152 174.454, 254.500 173.955 L 251.500 173.390 254.547 172.898 C 256.222 172.627, 260.047 172.701, 263.047 173.062 L 268.500 173.718 263.750 173.859 L 259 174 259 178.093 L 259 182.185 264.501 181.843 L 270.003 181.500 270.001 186.184 C 270 190.526, 270.200 190.898, 272.750 191.284 L 275.500 191.700 272.750 191.850 L 270 192 270 200 L 270 208 275 208 L 280 208 280 202.149 C 280 197.267, 279.086 194.178, 274.475 183.488 C 268.845 170.431, 268.382 168.574, 269.558 163.768 C 270.559 159.678, 269.423 156.681, 266.137 154.740 C 262.034 152.316, 258.346 152.563, 255.455 155.455 M 324.259 160.250 C 320.278 164.238, 316.758 167.795, 316.437 168.156 C 315.790 168.884, 330.985 183.982, 332.376 183.993 C 332.857 183.997, 336.790 180.518, 341.116 176.262 L 348.980 168.524 341.263 160.762 C 337.019 156.493, 333.086 153, 332.522 153 C 331.958 153, 328.240 156.262, 324.259 160.250 M 312.158 158 C 312.158 159.375, 312.385 159.938, 312.662 159.250 C 312.940 158.563, 312.940 157.438, 312.662 156.750 C 312.385 156.063, 312.158 156.625, 312.158 158 M 20.250 158.735 C 22.862 158.941, 27.137 158.941, 29.750 158.735 C 32.362 158.529, 30.225 158.360, 25 158.360 C 19.775 158.360, 17.637 158.529, 20.250 158.735 M 129.200 159.200 C 127.782 160.618, 127.535 175.594, 128.915 176.447 C 130.529 177.445, 141.719 178.287, 144.404 177.613 C 146.937 176.978, 147 176.761, 147 168.681 C 147 163.574, 146.540 159.940, 145.800 159.200 C 145.092 158.492, 141.689 158, 137.500 158 C 133.311 158, 129.908 158.492, 129.200 159.200 M 135.196 166.298 C 131.316 170.301, 131.161 171.750, 134.614 171.750 C 136.051 171.750, 137.602 172.356, 138.059 173.096 C 139.576 175.550, 140.324 173.245, 140.118 166.750 C 140.053 164.688, 139.638 163, 139.196 163 C 138.754 163, 136.954 164.484, 135.196 166.298 M 329.200 165.200 C 327.077 167.323, 327.789 170.947, 330.578 172.217 C 333.716 173.647, 336.346 172.332, 336.827 169.093 C 337.455 164.860, 332.214 162.186, 329.200 165.200 M 53.539 167.604 C 52.216 168.927, 52.054 170.544, 52.614 176.854 C 52.987 181.059, 53.711 184.773, 54.222 185.106 C 54.733 185.439, 58.371 185.571, 62.307 185.400 C 67.692 185.165, 69.776 184.659, 70.731 183.353 C 72.360 181.125, 72.413 168.813, 70.800 167.200 C 68.916 165.316, 55.513 165.629, 53.539 167.604 M 136.250 167.496 C 134.609 169.360, 134.673 170, 136.500 170 C 137.333 170, 138 169.111, 138 168 C 138 165.654, 137.898 165.625, 136.250 167.496 M 301.783 173.689 C 294.310 180.320, 292.996 182.268, 293.030 186.658 C 293.056 190.066, 293.686 191.037, 298.603 195.250 C 302.375 198.481, 305.048 200, 306.965 200 C 310.721 200, 321 191.480, 321 188.366 C 321 187.155, 321.271 185.456, 321.603 184.592 C 322.009 183.535, 319.988 180.721, 315.439 176.010 C 311.717 172.154, 308.311 169, 307.869 169 C 307.428 169, 304.689 171.110, 301.783 173.689 M 60.667 172.667 C 59.240 174.093, 60.107 175.105, 62.250 174.516 C 64.367 173.933, 64.393 173.983, 62.680 175.359 C 60.921 176.774, 60.921 176.861, 62.680 177.974 C 64.230 178.955, 64.077 179.036, 61.652 178.520 C 59.577 178.077, 58.921 178.264, 59.235 179.206 C 59.819 180.962, 62.785 181.423, 64.473 180.022 C 65.231 179.393, 65.690 177.669, 65.494 176.190 C 65.298 174.710, 65.107 173.162, 65.069 172.750 C 64.984 171.821, 61.577 171.757, 60.667 172.667 M 19.200 174.200 C 17.533 175.867, 17.534 198.594, 19.201 199.624 C 20.702 200.552, 43.379 200.502, 44.890 199.568 C 46.473 198.590, 46.392 175.792, 44.800 174.200 C 44.005 173.405, 39.689 173, 32 173 C 24.311 173, 19.995 173.405, 19.200 174.200 M 36.621 182.609 C 32.819 187.374, 32.731 189.412, 36.309 189.822 C 40.176 190.265, 39.607 193.582, 35.711 193.312 C 33.982 193.192, 33 193.623, 33 194.503 C 33 198.225, 39.439 197.326, 41.250 193.351 C 42.311 191.021, 42.151 190.532, 39.679 188.561 L 36.925 186.365 38.962 183.775 C 41.032 181.143, 41.610 179, 40.250 179 C 39.837 179, 38.204 180.624, 36.621 182.609 M 24.036 181.456 C 23.372 182.257, 23.154 183.440, 23.552 184.085 C 24.069 184.920, 24.538 184.789, 25.188 183.628 C 26.464 181.348, 29 181.595, 29 184 C 29 185.100, 28.422 186, 27.716 186 C 26.236 186, 23 191.057, 23 193.369 C 23 195.062, 25.912 197, 28.456 197 C 30.656 197, 32.494 192.705, 31.247 190.477 C 30.606 189.332, 30.633 187.783, 31.326 185.948 C 32.118 183.848, 32.055 182.771, 31.067 181.580 C 29.423 179.600, 25.632 179.533, 24.036 181.456 M 155.601 181.888 C 154.242 183.390, 153.981 185.130, 154.325 190.389 C 154.562 194.026, 155.317 197.677, 156.001 198.501 C 157.709 200.559, 170.260 200.597, 172.307 198.550 C 174.056 196.801, 174.462 183.261, 172.825 181.289 C 172.133 180.455, 169.207 180, 164.533 180 C 158.722 180, 156.976 180.369, 155.601 181.888 M 304.750 181.080 C 302.469 182.409, 302.511 186.247, 304.829 188.345 C 308.275 191.464, 312 189.726, 312 185 C 312 180.567, 308.697 178.781, 304.750 181.080 M 259 187 L 259 191 264 191 L 269 191 269 187 L 269 183 264 183 L 259 183 259 187 M 161.672 189.250 C 161.015 193.980, 162.604 196.178, 166.034 195.281 C 167.657 194.856, 167.905 194.094, 167.545 190.637 C 167.309 188.361, 167.089 186.162, 167.057 185.750 C 167.026 185.338, 165.934 185, 164.632 185 C 162.605 185, 162.178 185.613, 161.672 189.250 M 164 188.559 C 164 189.416, 164.450 189.840, 165 189.500 C 165.550 189.160, 166 188.459, 166 187.941 C 166 187.423, 165.550 187, 165 187 C 164.450 187, 164 187.702, 164 188.559 M 327 190.904 C 327 192.672, 326.663 193.910, 326.250 193.655 C 325.837 193.401, 323.480 195.175, 321.011 197.599 L 316.521 202.005 324.125 209.609 L 331.729 217.213 339.615 209.008 C 343.952 204.495, 347.500 200.447, 347.500 200.013 C 347.500 199.578, 345.088 196.672, 342.141 193.555 C 337.206 188.337, 336.645 188.011, 335.062 189.444 C 332.856 191.440, 331.113 191.412, 328.829 189.345 C 327.093 187.774, 327 187.854, 327 190.904 M 26.122 191.353 C 24.906 192.818, 25.596 194, 27.667 194 C 29.156 194, 29.492 191.422, 28.113 190.570 C 27.626 190.269, 26.730 190.621, 26.122 191.353 M 163.694 191.639 C 162.895 192.438, 163.798 194, 165.059 194 C 165.577 194, 166 193.325, 166 192.500 C 166 190.954, 164.820 190.513, 163.694 191.639 M 257.755 195.500 C 258.018 196.875, 258.406 198, 258.617 198 C 258.827 198, 259 196.875, 259 195.500 C 259 194.125, 258.612 193, 258.139 193 C 257.665 193, 257.492 194.125, 257.755 195.500 M 329.250 196.662 C 327.532 197.356, 327.673 202.484, 329.452 203.960 C 331.250 205.452, 334.682 204.463, 335.954 202.087 C 337.839 198.563, 333.414 194.982, 329.250 196.662 M 281.262 202.647 L 281.024 208 285.047 208 C 288.722 208, 288.980 207.832, 288.030 206.056 C 287.457 204.986, 286.505 203.812, 285.914 203.447 C 285.322 203.081, 284.087 201.547, 283.169 200.038 L 281.500 197.294 281.262 202.647 M 90.974 199.250 C 90.163 207.185, 90.162 216, 90.972 216 C 91.595 216, 92 212.653, 92 207.500 C 92 202.825, 91.775 199, 91.500 199 C 91.225 199, 90.988 199.113, 90.974 199.250 M 241 200 C 241 200.550, 241.450 201, 242 201 C 242.550 201, 243 200.550, 243 200 C 243 199.450, 242.550 199, 242 199 C 241.450 199, 241 199.450, 241 200 M 125.327 203.882 C 125.500 206.983, 125.179 208.020, 124.028 208.079 C 123 208.132, 122.909 208.323, 123.750 208.662 C 124.438 208.940, 125 210.479, 125 212.083 C 125 214.876, 126.555 216.338, 126.771 213.750 C 127.077 210.103, 127.062 208.152, 126.701 204.736 C 126.152 199.523, 125.045 198.835, 125.327 203.882 M 248.005 204.250 L 248 208 252.500 208 L 257 208 257 203.991 L 257 199.981 252.505 200.241 C 248.024 200.499, 248.010 200.512, 248.005 204.250 M 259 203.945 L 259 208 264.060 208 L 269.121 208 268.810 204.250 C 268.503 200.536, 268.454 200.497, 263.750 200.195 L 259 199.890 259 203.945 M 232.703 205.531 C 230.952 207.937, 230.959 208, 232.953 208 C 234.470 208, 235 207.352, 235 205.500 C 235 202.451, 234.945 202.452, 232.703 205.531 M 343.481 213.250 L 333.500 223.500 343.750 213.519 C 353.270 204.248, 354.455 203, 353.731 203 C 353.583 203, 348.971 207.613, 343.481 213.250 M 22.250 206.742 C 25.962 206.934, 32.038 206.934, 35.750 206.742 C 39.462 206.549, 36.425 206.392, 29 206.392 C 21.575 206.392, 18.538 206.549, 22.250 206.742 M 106.750 208.662 C 107.438 208.940, 108.563 208.940, 109.250 208.662 C 109.938 208.385, 109.375 208.158, 108 208.158 C 106.625 208.158, 106.063 208.385, 106.750 208.662 M 42.252 213.500 C 42.263 215.700, 42.468 216.482, 42.707 215.238 C 42.946 213.994, 42.937 212.194, 42.687 211.238 C 42.437 210.282, 42.241 211.300, 42.252 213.500 M 67.923 210.250 C 67.290 212.319, 67.364 214, 68.088 214 C 68.590 214, 69 213.100, 69 212 C 69 210.392, 68.252 209.176, 67.923 210.250 M 317 211.313 C 317 211.485, 318.462 212.948, 320.250 214.563 L 323.500 217.500 320.563 214.250 C 317.825 211.221, 317 210.540, 317 211.313 M 314.252 216.500 C 314.263 218.700, 314.468 219.482, 314.707 218.238 C 314.946 216.994, 314.937 215.194, 314.687 214.238 C 314.437 213.282, 314.241 214.300, 314.252 216.500 M 143.750 225.747 C 150.488 225.920, 161.512 225.920, 168.250 225.747 C 174.988 225.574, 169.475 225.432, 156 225.432 C 142.525 225.432, 137.012 225.574, 143.750 225.747 M 197.302 225.746 C 202.693 225.926, 211.243 225.925, 216.302 225.744 C 221.361 225.563, 216.950 225.416, 206.500 225.417 C 196.050 225.418, 191.911 225.566, 197.302 225.746 M 231.750 225.706 C 232.988 225.944, 235.012 225.944, 236.250 225.706 C 237.488 225.467, 236.475 225.272, 234 225.272 C 231.525 225.272, 230.512 225.467, 231.750 225.706 M 273.750 225.744 C 278.288 225.929, 285.712 225.929, 290.250 225.744 C 294.788 225.559, 291.075 225.407, 282 225.407 C 272.925 225.407, 269.212 225.559, 273.750 225.744 M 44.083 250.283 C 44.313 250.439, 45.400 251.226, 46.500 252.033 C 48.350 253.390, 48.397 253.369, 47.128 251.750 C 46.373 250.787, 45.285 250, 44.711 250 C 44.137 250, 43.854 250.127, 44.083 250.283 M 63.310 255.500 C 63.315 258.800, 63.502 260.029, 63.725 258.232 C 63.947 256.435, 63.943 253.735, 63.715 252.232 C 63.486 250.729, 63.304 252.200, 63.310 255.500 M 66.328 256.500 C 66.333 260.350, 66.513 261.802, 66.730 259.728 C 66.946 257.653, 66.943 254.503, 66.722 252.728 C 66.501 250.952, 66.324 252.650, 66.328 256.500 M 92.160 253.250 C 91.977 257.551, 92.887 257.948, 95.595 254.750 L 97.500 252.500 95.320 254.341 C 93.153 256.172, 93.138 256.163, 92.730 252.841 L 92.320 249.500 92.160 253.250 M 120 251.279 C 120 252.482, 118.797 252.985, 115.250 253.265 L 110.500 253.640 115.281 253.820 C 118.788 253.952, 120.221 253.589, 120.655 252.457 C 120.981 251.608, 120.966 250.633, 120.624 250.290 C 120.281 249.947, 120 250.392, 120 251.279 M 124.318 251.500 C 124.441 252.715, 125.382 253.623, 126.716 253.814 C 128.685 254.095, 128.948 254.818, 129.260 260.814 L 129.608 267.500 129.804 260.250 C 129.995 253.188, 129.937 253, 127.573 253 C 126.125 253, 124.939 252.294, 124.631 251.250 C 124.229 249.887, 124.160 249.942, 124.318 251.500 M 143.872 251.750 C 142.603 253.369, 142.650 253.390, 144.500 252.033 C 145.600 251.226, 146.688 250.439, 146.917 250.283 C 147.146 250.127, 146.863 250, 146.289 250 C 145.715 250, 144.627 250.787, 143.872 251.750 M 152.271 251.092 C 153.245 251.659, 153.738 252.615, 153.367 253.216 C 152.952 253.887, 153.155 254.022, 153.894 253.565 C 155.297 252.698, 153.553 249.978, 151.628 250.030 C 151.007 250.047, 151.297 250.525, 152.271 251.092 M 221.336 257 C 221.336 261.125, 221.513 262.813, 221.728 260.750 C 221.944 258.688, 221.944 255.313, 221.728 253.250 C 221.513 251.188, 221.336 252.875, 221.336 257 M 257.355 258.500 C 257.352 263.450, 257.521 265.601, 257.731 263.280 C 257.940 260.959, 257.943 256.909, 257.736 254.280 C 257.530 251.651, 257.358 253.550, 257.355 258.500 M 275.355 258.500 C 275.352 263.450, 275.521 265.601, 275.731 263.280 C 275.940 260.959, 275.943 256.909, 275.736 254.280 C 275.530 251.651, 275.358 253.550, 275.355 258.500 M 287 251.276 C 287 252.442, 285.831 252.990, 282.750 253.268 L 278.500 253.651 282.781 253.825 C 285.835 253.950, 287.233 253.557, 287.655 252.457 C 287.981 251.608, 287.966 250.633, 287.624 250.290 C 287.281 249.947, 287 250.391, 287 251.276 M 292.355 258.500 C 292.352 263.450, 292.521 265.601, 292.731 263.280 C 292.940 260.959, 292.943 256.909, 292.736 254.280 C 292.530 251.651, 292.358 253.550, 292.355 258.500 M 107.349 259 C 107.349 263.675, 107.522 265.587, 107.732 263.250 C 107.943 260.913, 107.943 257.087, 107.732 254.750 C 107.522 252.412, 107.349 254.325, 107.349 259 M 98.479 255.022 L 95.583 258.045 99.019 261.272 L 102.454 264.500 99.540 261.250 L 96.626 258 99.500 255 C 101.081 253.350, 102.149 252, 101.874 252 C 101.599 252, 100.071 253.360, 98.479 255.022 M 39.158 255 C 39.158 256.375, 39.385 256.938, 39.662 256.250 C 39.940 255.563, 39.940 254.438, 39.662 253.750 C 39.385 253.063, 39.158 253.625, 39.158 255 M 42 253.668 C 42.825 254.015, 43.872 254.795, 44.326 255.400 C 44.857 256.107, 45.006 255.965, 44.743 255 C 44.518 254.175, 43.472 253.395, 42.417 253.268 C 41.070 253.104, 40.946 253.223, 42 253.668 M 77.750 253.662 C 78.438 253.940, 79.563 253.940, 80.250 253.662 C 80.938 253.385, 80.375 253.158, 79 253.158 C 77.625 253.158, 77.063 253.385, 77.750 253.662 M 134.250 253.689 C 135.213 253.941, 136.787 253.941, 137.750 253.689 C 138.713 253.438, 137.925 253.232, 136 253.232 C 134.075 253.232, 133.287 253.438, 134.250 253.689 M 146.446 254.087 C 146.077 254.685, 146.302 255.698, 146.946 256.337 C 147.841 257.224, 147.947 257.050, 147.396 255.602 C 146.775 253.974, 147.047 253.776, 149.306 254.208 C 150.754 254.485, 151.702 254.326, 151.411 253.856 C 150.657 252.637, 147.244 252.796, 146.446 254.087 M 173.264 253.718 C 174.784 253.947, 177.034 253.941, 178.264 253.704 C 179.494 253.467, 178.250 253.279, 175.500 253.286 C 172.750 253.294, 171.744 253.488, 173.264 253.718 M 207.187 256.250 C 207.434 258.819, 207.975 259.528, 209.765 259.633 C 211.650 259.744, 211.692 259.690, 210.015 259.314 C 207.090 258.657, 207.274 254.279, 210.250 253.706 C 212.136 253.342, 212.045 253.250, 209.687 253.136 C 207.092 253.011, 206.898 253.253, 207.187 256.250 M 240.872 254.750 C 239.679 256.272, 239.695 256.351, 241 255.358 C 241.825 254.729, 243.400 253.994, 244.500 253.724 C 246.400 253.257, 246.393 253.226, 244.372 253.116 C 243.202 253.052, 241.627 253.787, 240.872 254.750 M 261 253.387 C 261 253.599, 262.326 253.968, 263.947 254.206 C 265.568 254.443, 266.667 254.270, 266.388 253.819 C 265.893 253.017, 261 252.625, 261 253.387 M 297.269 253.693 C 298.242 253.947, 299.592 253.930, 300.269 253.656 C 300.946 253.382, 300.150 253.175, 298.500 253.195 C 296.850 253.215, 296.296 253.439, 297.269 253.693 M 247.750 254.998 C 250.505 258.088, 248.614 262.886, 244.550 263.116 C 242.760 263.217, 242.731 263.292, 244.324 263.704 C 248.666 264.826, 251.869 257.659, 248.250 254.921 C 246.761 253.794, 246.687 253.806, 247.750 254.998 M 270.195 256.500 C 270.215 258.150, 270.439 258.704, 270.693 257.731 C 270.947 256.758, 270.930 255.408, 270.656 254.731 C 270.382 254.054, 270.175 254.850, 270.195 256.500 M 305.195 256.500 C 305.215 258.150, 305.439 258.704, 305.693 257.731 C 305.947 256.758, 305.930 255.408, 305.656 254.731 C 305.382 254.054, 305.175 254.850, 305.195 256.500 M 252.195 258.500 C 252.215 260.150, 252.439 260.704, 252.693 259.731 C 252.947 258.758, 252.930 257.408, 252.656 256.731 C 252.382 256.054, 252.175 256.850, 252.195 258.500 M 333.195 258.500 C 333.215 260.150, 333.439 260.704, 333.693 259.731 C 333.947 258.758, 333.930 257.408, 333.656 256.731 C 333.382 256.054, 333.175 256.850, 333.195 258.500 M 74 259.623 C 74 261.479, 77.776 264.195, 79.676 263.704 C 81.174 263.316, 81.109 263.211, 79.307 263.116 C 78.100 263.052, 76.413 262, 75.557 260.777 C 74.701 259.555, 74 259.035, 74 259.623 M 39.116 261.750 C 39.017 263.674, 39.471 263.978, 42.250 263.850 C 45.184 263.715, 45.239 263.660, 42.812 263.290 C 41.333 263.064, 39.923 262.119, 39.678 261.190 C 39.362 259.991, 39.198 260.154, 39.116 261.750 M 92.390 261.427 C 92.088 262.212, 92.041 263.900, 92.285 265.177 C 92.611 266.889, 92.763 266.617, 92.864 264.143 C 92.969 261.549, 93.353 260.921, 94.552 261.382 C 95.442 261.723, 95.843 261.555, 95.493 260.989 C 94.606 259.553, 93.023 259.777, 92.390 261.427 M 142.980 262.524 C 142.284 263.362, 141.909 264.242, 142.145 264.479 C 142.382 264.715, 143.125 264.030, 143.796 262.955 C 145.248 260.630, 144.764 260.375, 142.980 262.524 M 207.195 264.500 C 207.215 266.150, 207.439 266.704, 207.693 265.731 C 207.947 264.758, 207.930 263.408, 207.656 262.731 C 207.382 262.054, 207.175 262.850, 207.195 264.500 M 295.195 264.500 C 295.215 266.150, 295.439 266.704, 295.693 265.731 C 295.947 264.758, 295.930 263.408, 295.656 262.731 C 295.382 262.054, 295.175 262.850, 295.195 264.500 M 73.722 265.050 C 74.944 266.337, 76.138 267.189, 76.374 266.944 C 76.611 266.700, 75.611 265.648, 74.152 264.606 L 71.500 262.712 73.722 265.050 M 112.762 263.707 C 114.006 263.946, 115.806 263.937, 116.762 263.687 C 117.718 263.437, 116.700 263.241, 114.500 263.252 C 112.300 263.263, 111.518 263.468, 112.762 263.707 M 152.750 265.167 C 151.787 266.175, 151.395 267, 151.878 267 C 152.886 267, 155.483 264.108, 154.893 263.643 C 154.677 263.472, 153.713 264.158, 152.750 265.167 M 175.187 263.700 C 178.157 263.956, 180.042 264.642, 180.335 265.572 C 180.632 266.516, 180.740 266.408, 180.639 265.270 C 180.513 263.850, 179.496 263.480, 175.491 263.398 L 170.500 263.296 175.187 263.700 M 226.750 263.706 C 227.988 263.944, 230.012 263.944, 231.250 263.706 C 232.488 263.467, 231.475 263.272, 229 263.272 C 226.525 263.272, 225.512 263.467, 226.750 263.706 M 282.930 263.706 C 285.240 263.942, 287.065 264.716, 287.335 265.574 C 287.631 266.513, 287.740 266.404, 287.640 265.270 C 287.518 263.896, 286.531 263.478, 283.234 263.402 L 278.985 263.304 282.930 263.706 M 46.559 265.532 C 45.491 266.339, 45.099 267, 45.686 267 C 46.274 267, 47.315 266.325, 48 265.500 C 49.557 263.624, 49.067 263.634, 46.559 265.532 M 325.437 275.250 L 322.500 278.500 325.750 275.563 C 327.538 273.948, 329 272.485, 329 272.313 C 329 271.540, 328.175 272.221, 325.437 275.250 M 105.828 281.750 C 144.509 281.895, 207.509 281.895, 245.828 281.750 C 284.148 281.605, 252.500 281.486, 175.500 281.486 C 98.500 281.486, 67.148 281.605, 105.828 281.750 M 94.035 297.934 C 92.449 300.898, 92.790 302.817, 95.126 304.068 C 99.727 306.530, 104.433 300.833, 100.800 297.200 C 98.963 295.363, 95.192 295.772, 94.035 297.934 M 110.200 297.200 C 108.365 299.035, 108.771 302.807, 110.928 303.961 C 112.958 305.048, 115.998 304.379, 117.235 302.573 C 119.925 298.643, 113.593 293.807, 110.200 297.200 M 145 296.383 C 145 296.594, 146.111 296.979, 147.470 297.239 C 148.828 297.499, 149.702 297.326, 149.411 296.856 C 148.899 296.027, 145 295.610, 145 296.383 M 160.200 297.200 C 157.543 299.857, 159.473 305, 163.129 305 C 165.190 305, 168 302.404, 168 300.500 C 168 297.002, 162.658 294.742, 160.200 297.200 M 176.200 297.200 C 174.527 298.873, 174.702 302.508, 176.530 304.025 C 177.699 304.995, 178.641 305.029, 180.530 304.168 C 184.540 302.341, 183.352 296, 179 296 C 178.120 296, 176.860 296.540, 176.200 297.200 M 193.493 296.989 C 193.831 297.536, 193.470 297.734, 192.683 297.432 C 191.110 296.828, 189.780 300.262, 190.679 302.605 C 191.442 304.595, 195.736 305.464, 197.513 303.989 C 199.304 302.503, 199.458 298.858, 197.800 297.200 C 196.361 295.761, 192.621 295.578, 193.493 296.989 M 211 296.906 C 212.979 297.466, 213.499 298.260, 213.496 300.714 C 213.494 302.419, 213.831 303.604, 214.246 303.348 C 215.426 302.619, 215.130 298.530, 213.800 297.200 C 213.140 296.540, 211.678 296.045, 210.550 296.100 C 208.828 296.183, 208.900 296.312, 211 296.906 M 225.750 296.662 C 226.438 296.940, 227.563 296.940, 228.250 296.662 C 228.938 296.385, 228.375 296.158, 227 296.158 C 225.625 296.158, 225.063 296.385, 225.750 296.662 M 239.589 296.856 C 239.298 297.326, 240.174 297.498, 241.536 297.238 C 242.898 296.978, 244.796 297.380, 245.756 298.132 C 247.335 299.371, 247.370 299.335, 246.128 297.750 C 244.703 295.934, 240.513 295.360, 239.589 296.856 M 177 298.110 C 175.765 298.998, 175.834 299.080, 177.391 298.571 C 179.014 298.042, 179.098 298.177, 177.984 299.519 C 176.918 300.804, 176.919 301.302, 177.989 302.292 C 179.012 303.239, 179.141 303.230, 178.588 302.250 C 178.160 301.492, 178.472 301, 179.382 301 C 180.207 301, 181.203 300.480, 181.595 299.845 C 182.070 299.077, 181.866 298.965, 180.985 299.510 C 180.023 300.104, 179.835 299.872, 180.299 298.664 C 181.030 296.759, 179.285 296.466, 177 298.110 M 195 298.590 C 195 299.490, 194.526 299.825, 193.845 299.405 C 193.114 298.952, 192.963 299.131, 193.435 299.894 C 194.010 300.825, 194.554 300.811, 195.839 299.832 C 196.753 299.135, 197.632 298.494, 197.793 298.407 C 197.954 298.319, 197.392 297.981, 196.543 297.655 C 195.567 297.280, 195 297.624, 195 298.590 M 254.667 297.667 C 253.019 299.314, 254.103 303.090, 256.542 304.201 C 258.719 305.193, 259.392 305.053, 261.217 303.228 C 262.991 301.454, 263.163 300.711, 262.242 298.798 C 261.633 297.534, 261.105 297.048, 261.068 297.719 C 261.030 298.389, 260.433 298.720, 259.741 298.454 C 259.048 298.188, 257.671 299.215, 256.681 300.735 L 254.882 303.500 255.268 300.250 C 255.684 296.743, 255.667 296.667, 254.667 297.667 M 229.932 300.500 C 229.542 303.206, 229.165 303.484, 226.076 303.334 C 223.703 303.218, 223.090 303.444, 224.076 304.068 C 227.668 306.342, 231.463 303.920, 230.759 299.805 C 230.417 297.804, 230.307 297.896, 229.932 300.500 M 149.825 301.326 C 149.452 303.151, 149.592 303.808, 150.218 303.182 C 150.751 302.649, 151.011 301.377, 150.794 300.356 C 150.503 298.981, 150.251 299.233, 149.825 301.326 M 258.234 300.417 C 256.965 302.445, 257.186 303.866, 258.682 303.292 C 259.900 302.824, 259.928 302.551, 258.834 301.774 C 257.862 301.084, 258.066 300.949, 259.583 301.276 C 260.784 301.535, 261.667 301.219, 261.667 300.529 C 261.667 299.037, 259.149 298.954, 258.234 300.417 M 208.174 303.603 C 209.070 304.499, 210.283 305.067, 210.869 304.866 C 211.455 304.665, 210.722 303.931, 209.240 303.237 C 206.749 302.069, 206.668 302.097, 208.174 303.603 M 245.450 302.903 C 244.928 303.400, 243.600 304.022, 242.500 304.287 C 240.603 304.743, 240.609 304.774, 242.628 304.884 C 243.798 304.948, 245.315 304.325, 246 303.500 C 247.357 301.864, 246.977 301.451, 245.450 302.903 M 128.750 304.662 C 129.438 304.940, 130.563 304.940, 131.250 304.662 C 131.938 304.385, 131.375 304.158, 130 304.158 C 128.625 304.158, 128.063 304.385, 128.750 304.662" stroke="none" fill="#d9a88f" fill-rule="evenodd"/><path d="M 167.500 13.083 C 153.392 15.869, 147.310 20.369, 145.078 29.675 C 143.900 34.584, 144.238 36.668, 147.417 44.106 C 147.978 45.418, 146.394 46.251, 138.802 48.642 C 130.434 51.278, 128.824 51.485, 122.761 50.703 C 113.959 49.568, 96.377 52.037, 90 55.303 C 81.387 59.714, 77.656 72.732, 82.635 81 C 83.794 82.925, 85.024 86.691, 85.368 89.368 L 85.994 94.236 78.928 102.360 C 63.717 119.848, 51.838 141.453, 47.048 160.342 L 45.232 167.500 30.525 168 C 11.276 168.654, 12 167.896, 12 187.388 C 12 206.785, 11.307 206, 28.432 206 L 41.750 206 42.375 209.125 C 42.719 210.844, 43 214.358, 43 216.934 C 43 219.510, 43.639 222.491, 44.420 223.559 C 45.814 225.465, 48.248 225.497, 178.608 225.353 C 305.042 225.213, 311.439 225.120, 312.688 223.412 C 313.410 222.425, 314 220.185, 314 218.434 C 314 216.683, 314.280 213.851, 314.622 212.140 L 315.244 209.030 322.723 216.015 C 326.837 219.857, 330.952 223, 331.868 223 C 333.950 223, 355 202.021, 355 199.946 C 355 199.109, 352.750 196.209, 350 193.500 C 345.506 189.073, 345 188.131, 345 184.181 C 345 180.200, 345.471 179.345, 350 175.092 C 352.750 172.510, 355 169.544, 355 168.500 C 355 166.526, 334.498 145.982, 332.567 146.022 C 331.980 146.035, 327.470 149.899, 322.544 154.611 C 314.925 161.898, 313.480 162.902, 312.864 161.338 C 312.466 160.327, 312.109 152.930, 312.070 144.899 C 311.975 125.064, 310.705 122, 302.578 122 C 299.566 122, 298.660 121.429, 296.624 118.250 C 295.304 116.188, 290.514 110.077, 285.980 104.672 L 277.736 94.844 278.300 89.377 C 278.611 86.371, 279.845 81.887, 281.042 79.413 C 284.810 71.629, 282.108 61.086, 275 55.838 C 270.942 52.842, 257.980 50.869, 243.500 51.043 C 232.080 51.180, 229.479 50.884, 222.096 48.612 C 217.474 47.190, 213.504 45.837, 213.273 45.606 C 213.042 45.375, 213.568 43.802, 214.443 42.110 C 218.622 34.030, 216.883 23.301, 210.622 18.525 C 208.862 17.183, 204.740 15.353, 201.461 14.458 C 194.314 12.508, 174.477 11.705, 167.500 13.083 M 166.270 18.054 C 160.805 19.133, 153.879 22.215, 152.112 24.356 C 149.342 27.712, 154.899 31.156, 165.884 32.893 C 170.486 33.620, 171.106 33.488, 172.407 31.502 C 174.571 28.199, 179.289 26.556, 182.947 27.832 C 186.612 29.109, 186.944 28.656, 186.404 23.104 L 185.979 18.739 192.197 19.443 C 200.506 20.383, 208.412 23.185, 208.826 25.338 C 209.260 27.589, 202.420 30.596, 194.737 31.532 C 191.567 31.918, 188.728 32.631, 188.428 33.117 C 187.665 34.351, 189.330 34.234, 198.554 32.403 C 207.895 30.549, 212.097 28.049, 210.423 25.342 C 208.387 22.051, 204.488 19.991, 197.500 18.514 C 190.008 16.931, 173.214 16.683, 166.270 18.054 M 230.189 23.714 C 227.315 24.263, 226.353 26.516, 228.097 28.616 C 229.044 29.758, 230.489 30.064, 233.209 29.699 C 236.039 29.319, 237 29.546, 237 30.595 C 237 31.427, 235.980 32, 234.500 32 C 232.944 32, 232 32.567, 232 33.500 C 232 34.433, 232.944 35, 234.500 35 C 235.875 35, 237 35.450, 237 36 C 237 36.550, 235.313 37.007, 233.250 37.015 C 228.613 37.034, 226.695 38.169, 227.158 40.620 C 227.687 43.417, 238.707 45.121, 240.491 42.682 C 241.557 41.223, 243.923 41, 258.325 41 C 273.129 41, 275.027 40.810, 275.830 39.250 C 277.847 35.328, 276.543 35, 258.917 35 C 244.669 35, 242 34.767, 242 33.524 C 242 32.293, 244.774 32.003, 258.750 31.774 L 275.500 31.500 275.500 29 L 275.500 26.500 258.853 26.226 C 245.640 26.009, 241.953 25.648, 240.980 24.476 C 239.800 23.054, 235.305 22.737, 230.189 23.714 M 104.374 27.468 C 104.051 28.311, 104.051 29.689, 104.374 30.532 C 104.865 31.811, 106.906 32.017, 116.731 31.782 L 128.500 31.500 128.500 29 L 128.500 26.500 116.731 26.218 C 106.906 25.983, 104.865 26.189, 104.374 27.468 M 177.334 32.250 C 174.936 36.075, 176.474 41, 180.066 41 C 181.938 41, 185 37.493, 185 35.349 C 185 32.018, 179 29.593, 177.334 32.250 M 206.583 33.741 C 202.252 36.010, 193.783 38.047, 191.500 37.369 C 190.225 36.990, 189.862 37.117, 190.500 37.719 C 192.686 39.783, 199.709 40.994, 204.402 40.117 C 209.897 39.091, 209.545 39.379, 210.331 35.250 C 211.018 31.644, 210.773 31.545, 206.583 33.741 M 104.025 36.470 C 102.998 37.707, 102.998 38.293, 104.025 39.530 C 105.059 40.776, 107.459 41.009, 116.898 40.780 L 128.500 40.500 128.500 38 L 128.500 35.500 116.898 35.220 C 107.459 34.991, 105.059 35.224, 104.025 36.470 M 177 36.386 C 177 37.200, 177.934 38.162, 179.075 38.524 C 182.050 39.468, 182.174 38.777, 179.402 36.703 C 177.425 35.224, 177 35.168, 177 36.386 M 96.441 38.096 C 96.068 38.699, 96.379 39.807, 97.132 40.560 C 98.866 42.294, 101.530 40.823, 100.677 38.601 C 99.974 36.769, 97.447 36.468, 96.441 38.096 M 187.333 43.405 C 187.333 44.177, 187.933 44.579, 188.667 44.298 C 189.400 44.016, 190 44.311, 190 44.952 C 190 45.593, 190.384 45.881, 190.853 45.591 C 191.322 45.301, 192.559 45.710, 193.603 46.500 C 194.909 47.489, 195.069 47.946, 194.116 47.968 C 191.472 48.029, 185.069 45.698, 185.585 44.863 C 185.870 44.401, 185.386 44.298, 184.509 44.635 C 183.632 44.972, 183.146 45.479, 183.430 45.763 C 183.982 46.316, 179.902 48.798, 173.657 51.709 L 169.813 53.500 170.417 64 C 170.749 69.775, 171.304 78.952, 171.650 84.393 L 172.278 94.287 169.389 93.573 C 167.343 93.067, 166.806 93.171, 167.549 93.928 C 169.442 95.859, 183.875 97.111, 190.465 95.916 C 196.922 94.745, 203 92.550, 203 91.390 C 203 89.945, 208.046 50.415, 208.539 48 C 209.048 45.503, 209.040 45.500, 201.231 45.500 C 195.468 45.500, 192.710 45.040, 190.741 43.750 C 187.517 41.637, 187.333 41.619, 187.333 43.405 M 51.859 57.012 C 46.874 59.646, 46 62.862, 46 78.578 C 46 89.317, 46.301 92.158, 47.571 93.429 C 49.616 95.473, 71.410 95.753, 72.667 93.750 C 73.098 93.063, 73.331 85.300, 73.185 76.500 L 72.919 60.500 69.944 57.750 C 67.401 55.400, 66.135 55.006, 61.234 55.044 C 57.578 55.072, 54.181 55.785, 51.859 57.012 M 101.264 56.567 C 90.694 58.884, 86.036 62.330, 88.146 66.272 C 89.267 68.367, 92.264 69.721, 99.875 71.571 L 105.250 72.878 108.493 69.439 C 112.793 64.879, 116.924 64.770, 121.253 69.100 C 124.019 71.865, 124.793 72.131, 128.427 71.571 C 138.662 69.994, 145.965 65.957, 144.673 62.590 C 142.399 56.663, 116.942 53.132, 101.264 56.567 M 231.440 56.835 C 222.504 58.704, 217.712 61.227, 218.189 63.813 C 218.640 66.260, 228.187 70.754, 234.649 71.562 C 239.798 72.205, 240.386 72.064, 242.633 69.640 C 247.144 64.775, 253.905 64.930, 256.795 69.965 C 258.709 73.301, 260.613 73.251, 270 69.618 C 274.936 67.707, 275.500 67.188, 275.500 64.551 C 275.500 60.610, 271.359 58.254, 261.271 56.455 C 251.070 54.637, 241.358 54.760, 231.440 56.835 M 54.479 63.265 C 50.938 66.310, 50.431 72.348, 53.678 72.810 C 55.396 73.055, 55.924 72.548, 56.178 70.411 C 56.589 66.951, 59.322 65.085, 61.750 66.607 C 65.240 68.795, 64.314 71.500, 57.552 78.869 C 53.948 82.796, 51 86.681, 51 87.504 C 51 88.712, 52.603 89, 59.333 89 C 63.917 89, 67.918 88.749, 68.225 88.442 C 68.531 88.135, 68.554 87.010, 68.275 85.942 C 67.877 84.421, 66.885 84, 63.696 84 L 59.626 84 62.160 81.250 C 66.677 76.347, 68 73.634, 68 69.277 C 68 66.333, 67.377 64.377, 66 63 C 63.256 60.256, 57.832 60.380, 54.479 63.265 M 298.200 62.200 C 296.281 64.119, 296.773 65.594, 300.392 68.771 L 303.784 71.749 300.250 75.283 C 297.975 77.559, 296.933 79.384, 297.327 80.409 C 298.283 82.902, 301.108 82.288, 304.702 78.804 L 308 75.608 311.298 78.804 C 314.969 82.362, 316.492 82.766, 317.393 80.418 C 318.286 78.090, 318.270 78.054, 314.847 74.857 L 311.694 71.911 314.847 68.658 C 318.321 65.074, 318.890 62.279, 316.346 61.303 C 315.220 60.870, 313.592 61.869, 311.241 64.434 L 307.789 68.200 304.103 64.600 C 299.974 60.569, 299.873 60.527, 298.200 62.200 M 165.351 69 C 165.698 72.025, 166.043 76.300, 166.116 78.500 C 166.243 82.305, 166.287 82.243, 167.017 77.239 C 167.755 72.175, 166.962 65.567, 165.447 64.171 C 165.047 63.802, 165.004 65.975, 165.351 69 M 111.571 71.571 C 109.647 73.496, 109.587 75.053, 111.344 77.456 C 113.243 80.053, 117.757 78.817, 118.596 75.472 C 119.758 70.844, 114.962 68.181, 111.571 71.571 M 246.897 72.750 C 246.232 74.488, 246.188 76.052, 246.779 77 C 248.930 80.451, 254 78.750, 254 74.578 C 254 69.670, 248.608 68.282, 246.897 72.750 M 139.500 72.511 C 137.850 73.252, 133.575 74.398, 130 75.057 C 124.459 76.078, 123.204 76.713, 121.494 79.356 C 118.840 83.456, 115.222 84.706, 111.417 82.835 C 108.782 81.539, 108.245 81.585, 105.861 83.307 C 104.176 84.523, 100.824 85.405, 96.595 85.744 L 89.968 86.276 90.644 91.388 C 91.015 94.200, 92.485 103.453, 93.910 111.950 L 96.500 127.401 101.334 129.878 C 110.427 134.540, 131.220 132.954, 136.260 127.214 C 137.300 126.030, 138.730 117.616, 140.885 100 C 142.600 85.975, 144.003 73.713, 144.002 72.750 C 144 70.716, 143.547 70.692, 139.500 72.511 M 220 72.797 C 220 73.921, 220.903 81.288, 222.006 89.170 C 223.109 97.051, 224.481 107.100, 225.055 111.500 C 226.826 125.079, 226.967 125.623, 229.265 127.678 C 230.494 128.777, 233.038 130.285, 234.919 131.029 C 239.395 132.801, 254.241 132.866, 260.179 131.140 C 267.590 128.986, 268.443 127.390, 270.408 112 C 271.356 104.575, 272.552 96.055, 273.066 93.066 C 274.404 85.283, 274.534 85.508, 268.636 85.425 C 265.254 85.378, 261.788 84.570, 259.218 83.231 C 255.711 81.403, 254.988 81.310, 253.954 82.556 C 251.238 85.828, 243.807 83.253, 241.962 78.399 C 241.340 76.763, 240.266 76, 238.587 76 C 235.012 76, 222.734 73.024, 221.259 71.800 C 220.317 71.018, 220 71.269, 220 72.797 M 273.756 72.116 C 272.807 72.648, 268.760 73.926, 264.765 74.956 L 257.500 76.830 261.340 78.466 C 263.583 79.422, 267.102 79.977, 269.800 79.801 C 274.292 79.508, 274.442 79.392, 275.226 75.599 C 276.163 71.061, 276.064 70.825, 273.756 72.116 M 88.564 75.329 C 88.942 77.073, 89.757 78.860, 90.376 79.300 C 91.934 80.410, 101.328 79.438, 104.164 77.874 C 106.410 76.635, 106.326 76.558, 102 75.867 C 99.525 75.472, 95.335 74.476, 92.688 73.654 L 87.876 72.158 88.564 75.329 M 111.032 74.050 C 111.014 74.902, 111.540 76.140, 112.200 76.800 C 113.656 78.256, 116 78.380, 116 77 C 116 76.450, 115.487 76, 114.860 76 C 114.233 76, 113.123 75.213, 112.392 74.250 C 111.274 72.777, 111.059 72.746, 111.032 74.050 M 247 74.972 C 247 76.464, 250.066 78.334, 250.992 77.408 C 251.536 76.864, 250.917 76.036, 249.450 75.344 C 248.102 74.708, 247 74.541, 247 74.972 M 38.488 82.385 C 36.255 84.018, 36.952 87.418, 39.598 87.798 C 42.099 88.157, 44.264 85.851, 43.440 83.704 C 42.593 81.497, 40.475 80.932, 38.488 82.385 M 303.557 88.223 C 301.758 90.791, 301.551 94.293, 303.035 97.066 C 303.955 98.785, 303.725 99, 300.969 99 C 298.175 99, 297.899 99.273, 298.184 101.750 C 298.408 103.703, 299.141 104.591, 300.712 104.815 C 302.583 105.081, 302.834 105.580, 302.339 108.053 C 300.947 115.016, 307.948 118.439, 313.694 113.604 L 316.541 111.208 319.326 113.604 C 322.410 116.257, 326.652 116.706, 329.431 114.674 C 330.809 113.667, 331.149 112.362, 330.851 109.231 C 330.536 105.933, 330.810 105.022, 332.224 104.652 C 334.947 103.940, 335.634 100.937, 333.441 99.333 C 332.405 98.576, 330.932 98.196, 330.167 98.489 C 329.149 98.880, 328.989 98.552, 329.570 97.261 C 330.887 94.333, 330.392 90.091, 328.488 87.987 C 326.023 85.263, 320.672 85.363, 318.046 88.181 L 316.014 90.362 313.693 88.181 C 310.587 85.264, 305.615 85.284, 303.557 88.223 M 308.194 92.206 C 307.258 93.142, 307.813 94.249, 310.699 97.204 L 314.406 101 310.741 104.753 C 308.044 107.516, 307.320 108.899, 307.997 109.996 C 308.754 111.219, 309.641 110.780, 312.959 107.540 L 317 103.594 320.966 107.467 C 324.363 110.784, 325.028 111.091, 325.598 109.604 C 326.052 108.423, 325.263 106.835, 323.132 104.636 C 319.350 100.734, 319.290 100.016, 322.500 97 C 325.068 94.587, 325.816 92, 323.946 92 C 323.366 92, 321.468 93.330, 319.728 94.957 C 317.988 96.583, 316.318 97.595, 316.016 97.207 C 315.715 96.818, 314.102 95.264, 312.432 93.752 C 310.068 91.613, 309.129 91.271, 308.194 92.206 M 30.378 108.458 C 29.340 111.162, 30.793 113, 33.969 113 C 35.997 113, 37 113.497, 37 114.500 C 37 115.325, 37.675 116, 38.500 116 C 39.325 116, 40 115.354, 40 114.563 C 40 113.673, 41.237 113.007, 43.250 112.813 C 45.966 112.551, 46.500 112.090, 46.500 110 C 46.500 107.573, 46.273 107.491, 38.735 107.208 C 32.475 106.972, 30.855 107.214, 30.378 108.458 M 156.110 111.396 C 153.294 112.956, 151.085 116.593, 151.035 119.750 C 151.006 121.591, 151.545 122, 154 122 C 157.317 122, 157.821 123.074, 155.434 125.055 C 153.970 126.269, 151 131.224, 151 132.450 C 151 133.512, 169.874 133.013, 170.541 131.933 C 171.573 130.263, 170.780 130.011, 163.673 129.747 C 160.013 129.611, 157.014 129.197, 157.009 128.827 C 157.004 128.456, 158.125 126.816, 159.500 125.182 C 162.143 122.041, 162.686 119.542, 160.956 118.473 C 160.382 118.118, 159.238 118.387, 158.414 119.072 C 157.229 120.055, 156.662 120.058, 155.708 119.087 C 154.761 118.124, 155.010 117.441, 156.861 115.929 C 159.749 113.569, 162.799 113.470, 165.891 115.636 C 167.851 117.009, 168.144 117.893, 167.709 121.136 C 167.242 124.612, 167.412 125, 169.400 125 C 171.387 125, 171.594 124.529, 171.452 120.326 C 171.321 116.446, 170.757 115.172, 168.131 112.826 C 164.631 109.698, 160.137 109.164, 156.110 111.396 M 199.288 112.966 C 191.011 118.013, 194.670 131.341, 204.703 132.687 C 209.557 133.338, 212.459 131.936, 215.050 127.686 C 221.527 117.063, 210.089 106.380, 199.288 112.966 M 14.571 116.571 C 10.883 120.259, 14.006 127, 19.402 127 C 24.860 127, 27.650 121.952, 24.965 116.934 C 23.659 114.495, 16.884 114.259, 14.571 116.571 M 31.250 117.662 C 30.563 117.940, 30 119.254, 30 120.583 C 30 122.602, 30.494 123, 33 123 C 35.533 123, 36 123.389, 36 125.500 C 36 127.333, 36.533 128, 38 128 C 39.467 128, 40 127.333, 40 125.500 C 40 123.325, 40.440 123, 43.393 123 C 47.115 123, 48.842 120.719, 46.895 118.373 C 45.777 117.027, 34.136 116.498, 31.250 117.662 M 340.108 119.849 C 338.948 121.477, 338 123.597, 338 124.559 C 338 126.156, 338.154 126.172, 339.750 124.746 C 340.712 123.886, 342.625 123.029, 344 122.841 C 345.909 122.581, 346.500 121.909, 346.500 120 C 346.500 116.204, 342.766 116.115, 340.108 119.849 M 205 119.140 C 205 119.767, 204.213 120.877, 203.250 121.608 C 201.624 122.842, 201.654 122.939, 203.677 122.968 C 204.890 122.986, 206.056 123.774, 206.311 124.750 C 206.746 126.417, 206.774 126.417, 206.884 124.750 C 206.953 123.705, 207.806 123, 209 123 C 210.100 123, 211 122.564, 211 122.031 C 211 121.499, 210.298 121.332, 209.440 121.661 C 208.399 122.061, 207.696 121.553, 207.324 120.130 C 206.742 117.905, 205 117.163, 205 119.140 M 318.105 127.373 C 317.478 128.129, 317.246 129.479, 317.590 130.373 C 318.101 131.707, 319.817 132, 327.107 132 L 336 132 336 129 L 336 126 327.622 126 C 321.739 126, 318.906 126.409, 318.105 127.373 M 343 126.729 C 339.120 128.206, 339.840 132, 344 132 C 347.130 132, 348.679 129.523, 346.895 127.373 C 345.674 125.903, 345.323 125.845, 343 126.729 M 279.200 128.200 C 278.540 128.860, 278 131.785, 278 134.700 C 278 139.511, 278.208 140.006, 280.250 140.063 L 282.500 140.127 280.250 141.031 C 278.402 141.774, 278 142.710, 278 146.268 C 278 150.744, 279.304 153, 281.891 153 C 283.108 153, 283.072 152.770, 281.695 151.750 C 280.168 150.619, 280.150 150.228, 281.504 147.636 C 283.289 144.219, 283.361 143.659, 281.900 144.562 C 281.127 145.039, 281.138 144.611, 281.935 143.121 C 283.308 140.555, 284.170 140.327, 283.333 142.750 C 282.956 143.842, 283.955 143.317, 285.989 141.356 C 287.892 139.521, 288.948 137.725, 288.525 137.041 C 287.995 136.183, 287.338 136.289, 286.070 137.437 C 283.939 139.366, 282.713 138.404, 284.070 135.869 C 285.198 133.762, 288.986 133.386, 290.800 135.200 C 292.675 137.075, 292.223 139.442, 289.500 142 C 288.125 143.292, 287 144.668, 287 145.058 C 287 146.080, 291.574 146.804, 294.500 146.245 C 297.468 145.677, 297.880 143, 295 143 C 293.900 143, 293 142.509, 293 141.910 C 293 140.056, 298.421 133.044, 299.872 133.021 C 300.954 133.005, 300.898 133.475, 299.608 135.250 C 296.866 139.020, 296.678 140.044, 298.483 141.364 C 300.877 143.115, 300.088 145.797, 296.325 148.695 L 293.151 151.140 293.689 148.820 L 294.228 146.500 292.587 148.708 C 291.531 150.128, 290.330 150.700, 289.223 150.311 C 287.849 149.828, 287.744 149.969, 288.702 151.005 C 289.459 151.823, 292.613 152.341, 297.202 152.402 L 304.500 152.500 305.360 141.236 C 306.011 132.714, 305.921 129.609, 304.988 128.486 C 303.391 126.561, 281.085 126.315, 279.200 128.200 M 70.306 130.414 C 67.911 132.474, 67.526 133.508, 67.676 137.476 C 67.884 142.969, 69.856 146.357, 74.131 148.568 C 77.589 150.356, 82.236 149.924, 85.708 147.492 C 90.353 144.239, 91.069 134.069, 86.944 129.944 C 83.918 126.918, 74.045 127.197, 70.306 130.414 M 30.378 130.458 C 28.935 134.218, 30.631 135.097, 38.735 134.792 C 46.273 134.509, 46.500 134.427, 46.500 132 C 46.500 129.573, 46.273 129.491, 38.735 129.208 C 32.475 128.972, 30.855 129.214, 30.378 130.458 M 338 134.096 C 338 134.698, 338.948 136.523, 340.108 138.151 C 342.637 141.704, 346.322 141.752, 346.821 138.239 C 347.081 136.409, 346.552 135.860, 344.050 135.360 C 342.350 135.020, 340.716 134.350, 340.420 133.871 C 339.657 132.636, 338 132.790, 338 134.096 M 76 135 C 76 135.550, 76.900 136, 78 136 C 79.467 136, 80 136.667, 80 138.500 C 80 140.333, 79.467 141, 78 141 C 76.900 141, 76 141.450, 76 142 C 76 143.552, 80.608 143.178, 81.989 141.513 C 82.715 140.639, 82.906 139.298, 82.454 138.263 C 82.031 137.293, 81.775 135.938, 81.886 135.250 C 82.010 134.480, 80.920 134, 79.044 134 C 77.370 134, 76 134.450, 76 135 M 300.702 141.667 C 300.984 142.400, 301.343 143, 301.500 143 C 301.657 143, 302.016 142.400, 302.298 141.667 C 302.579 140.933, 302.220 140.333, 301.500 140.333 C 300.780 140.333, 300.421 140.933, 300.702 141.667 M 171.963 143.069 C 170.514 145.777, 171.743 157.542, 173.640 159.116 C 175.183 160.397, 185.229 161.180, 184.476 159.960 C 184.220 159.547, 184.712 158.941, 185.569 158.612 C 186.440 158.278, 186.810 157.502, 186.409 156.853 C 185.959 156.125, 186.128 155.961, 186.862 156.415 C 187.506 156.813, 187.774 157.557, 187.457 158.069 C 187.141 158.581, 187.250 159, 187.700 159 C 189.057 159, 190.694 155.649, 190.508 153.250 C 190.413 152.012, 190.765 151, 191.292 151 C 192.704 151, 191.253 144.937, 189.333 142.816 C 188.031 141.377, 186.173 141, 180.380 141 C 174.012 141, 172.928 141.267, 171.963 143.069 M 214.870 148.731 C 211.224 151.904, 206.666 155.713, 204.742 157.196 C 202.322 159.060, 201.031 161.020, 200.557 163.548 C 200.180 165.559, 200.121 167.454, 200.426 167.759 C 200.731 168.064, 204.853 165.736, 209.586 162.586 C 214.320 159.436, 218.361 157.028, 218.567 157.234 C 219.308 157.975, 209.499 171.664, 202.631 179.473 C 192.252 191.273, 187.581 195.338, 176.388 202.311 C 167.844 207.634, 161.864 210.478, 145.500 217.001 C 144.400 217.439, 161.162 217.830, 182.750 217.868 L 222 217.939 222 187.469 C 222 170.711, 222.338 157.020, 222.750 157.045 C 223.162 157.070, 225.975 160.431, 229 164.514 C 236.293 174.357, 239 175.386, 239 168.318 C 239 164.479, 234.143 156.887, 225.830 147.731 L 221.500 142.961 214.870 148.731 M 178 146.934 C 178 147.520, 178.825 148, 179.833 148 C 181.206 148, 181.667 148.758, 181.667 151.014 C 181.667 153.549, 181.356 153.930, 179.715 153.410 C 178.344 152.975, 177.896 153.193, 178.209 154.145 C 178.837 156.057, 183.875 156.488, 184.566 154.689 C 184.871 153.894, 184.730 151.727, 184.252 149.872 C 183.572 147.227, 182.804 146.432, 180.692 146.184 C 179.211 146.010, 178 146.347, 178 146.934 M 15 149 C 15 150.667, 15.667 151, 19 151 C 21.889 151, 23 151.417, 23 152.500 C 23 153.583, 21.889 154, 19 154 C 15.667 154, 15 154.333, 15 156 C 15 157.867, 15.667 158, 25 158 C 34.333 158, 35 157.867, 35 156 C 35 154.381, 34.333 154, 31.500 154 C 29.056 154, 28 153.548, 28 152.500 C 28 151.452, 29.056 151, 31.500 151 C 34.333 151, 35 150.619, 35 149 C 35 147.133, 34.333 147, 25 147 C 15.667 147, 15 147.133, 15 149 M 100.500 147.945 C 96.972 149.389, 94.784 152.759, 94.484 157.208 C 93.983 164.639, 81.541 191.578, 75.759 197.750 C 74.600 198.988, 73.903 200, 74.211 200 C 74.518 200, 73.263 201.645, 71.422 203.655 C 69.580 205.665, 68.309 207.690, 68.596 208.155 C 68.883 208.620, 68.529 209.020, 67.809 209.045 C 67.089 209.069, 64.388 210.982, 61.807 213.295 L 57.114 217.500 68.057 217.188 L 79 216.875 79 209.271 C 79 205.089, 79.246 201.913, 79.547 202.214 C 79.848 202.515, 80.105 205.965, 80.117 209.881 L 80.140 217 91.070 217 L 102 217 102.030 209.250 C 102.049 204.520, 102.389 202.085, 102.902 203 C 103.365 203.825, 103.689 207.312, 103.622 210.750 L 103.500 217 108.545 217 L 113.590 217 113.766 205.362 C 113.863 198.961, 114.181 193.486, 114.471 193.195 C 114.762 192.905, 115 198.116, 115 204.776 L 115 216.886 127.369 217.193 L 139.738 217.500 135.535 212 C 129.499 204.100, 123.037 193.004, 117.774 181.500 C 111.310 167.370, 109.693 161.936, 110.962 158.600 C 112.358 154.927, 109.994 149.328, 106.483 147.994 C 103.469 146.848, 103.188 146.845, 100.500 147.945 M 255.455 155.455 C 253.781 157.128, 253 159.026, 253 161.418 C 253 164.457, 251.140 170.517, 248.064 177.500 C 245.326 183.716, 240.748 193.079, 238.538 196.985 C 237.142 199.451, 236 202.939, 236 204.735 C 236 207.986, 236.021 208, 241 208 L 246 208 246 203.500 L 246 199 257.500 199 L 269 199 269 195.500 L 269 192 258.066 192 L 247.133 192 246.716 194.750 L 246.300 197.500 246.150 194.750 C 246.051 192.934, 245.406 191.939, 244.250 191.820 C 243.287 191.721, 245.875 191.383, 250 191.070 L 257.500 190.500 257.650 186.750 L 257.800 183 252.150 182.837 L 246.500 182.674 252 182.087 L 257.500 181.500 257.500 178.010 C 257.500 174.924, 257.152 174.454, 254.500 173.955 L 251.500 173.390 254.547 172.898 C 256.222 172.627, 260.047 172.701, 263.047 173.062 L 268.500 173.718 263.750 173.859 L 259 174 259 178.093 L 259 182.185 264.501 181.843 L 270.003 181.500 270.001 186.184 C 270 190.526, 270.200 190.898, 272.750 191.284 L 275.500 191.700 272.750 191.850 L 270 192 270 200 L 270 208 275 208 L 280 208 280 202.149 C 280 197.267, 279.086 194.178, 274.475 183.488 C 268.845 170.431, 268.382 168.574, 269.558 163.768 C 270.559 159.678, 269.423 156.681, 266.137 154.740 C 262.034 152.316, 258.346 152.563, 255.455 155.455 M 324.259 160.250 C 320.278 164.238, 316.758 167.795, 316.437 168.156 C 315.790 168.884, 330.985 183.982, 332.376 183.993 C 332.857 183.997, 336.790 180.518, 341.116 176.262 L 348.980 168.524 341.263 160.762 C 337.019 156.493, 333.086 153, 332.522 153 C 331.958 153, 328.240 156.262, 324.259 160.250 M 129.200 159.200 C 127.782 160.618, 127.535 175.594, 128.915 176.447 C 130.529 177.445, 141.719 178.287, 144.404 177.613 C 146.937 176.978, 147 176.761, 147 168.681 C 147 163.574, 146.540 159.940, 145.800 159.200 C 145.092 158.492, 141.689 158, 137.500 158 C 133.311 158, 129.908 158.492, 129.200 159.200 M 135.196 166.298 C 131.316 170.301, 131.161 171.750, 134.614 171.750 C 136.051 171.750, 137.602 172.356, 138.059 173.096 C 139.576 175.550, 140.324 173.245, 140.118 166.750 C 140.053 164.688, 139.638 163, 139.196 163 C 138.754 163, 136.954 164.484, 135.196 166.298 M 329.200 165.200 C 327.077 167.323, 327.789 170.947, 330.578 172.217 C 333.716 173.647, 336.346 172.332, 336.827 169.093 C 337.455 164.860, 332.214 162.186, 329.200 165.200 M 53.539 167.604 C 52.216 168.927, 52.054 170.544, 52.614 176.854 C 52.987 181.059, 53.711 184.773, 54.222 185.106 C 54.733 185.439, 58.371 185.571, 62.307 185.400 C 67.692 185.165, 69.776 184.659, 70.731 183.353 C 72.360 181.125, 72.413 168.813, 70.800 167.200 C 68.916 165.316, 55.513 165.629, 53.539 167.604 M 136.250 167.496 C 134.609 169.360, 134.673 170, 136.500 170 C 137.333 170, 138 169.111, 138 168 C 138 165.654, 137.898 165.625, 136.250 167.496 M 301.783 173.689 C 294.310 180.320, 292.996 182.268, 293.030 186.658 C 293.056 190.066, 293.686 191.037, 298.603 195.250 C 302.375 198.481, 305.048 200, 306.965 200 C 310.721 200, 321 191.480, 321 188.366 C 321 187.155, 321.271 185.456, 321.603 184.592 C 322.009 183.535, 319.988 180.721, 315.439 176.010 C 311.717 172.154, 308.311 169, 307.869 169 C 307.428 169, 304.689 171.110, 301.783 173.689 M 60.667 172.667 C 59.240 174.093, 60.107 175.105, 62.250 174.516 C 64.367 173.933, 64.393 173.983, 62.680 175.359 C 60.921 176.774, 60.921 176.861, 62.680 177.974 C 64.230 178.955, 64.077 179.036, 61.652 178.520 C 59.577 178.077, 58.921 178.264, 59.235 179.206 C 59.819 180.962, 62.785 181.423, 64.473 180.022 C 65.231 179.393, 65.690 177.669, 65.494 176.190 C 65.298 174.710, 65.107 173.162, 65.069 172.750 C 64.984 171.821, 61.577 171.757, 60.667 172.667 M 19.200 174.200 C 17.533 175.867, 17.534 198.594, 19.201 199.624 C 20.702 200.552, 43.379 200.502, 44.890 199.568 C 46.473 198.590, 46.392 175.792, 44.800 174.200 C 44.005 173.405, 39.689 173, 32 173 C 24.311 173, 19.995 173.405, 19.200 174.200 M 36.621 182.609 C 32.819 187.374, 32.731 189.412, 36.309 189.822 C 40.176 190.265, 39.607 193.582, 35.711 193.312 C 33.982 193.192, 33 193.623, 33 194.503 C 33 198.225, 39.439 197.326, 41.250 193.351 C 42.311 191.021, 42.151 190.532, 39.679 188.561 L 36.925 186.365 38.962 183.775 C 41.032 181.143, 41.610 179, 40.250 179 C 39.837 179, 38.204 180.624, 36.621 182.609 M 24.036 181.456 C 23.372 182.257, 23.154 183.440, 23.552 184.085 C 24.069 184.920, 24.538 184.789, 25.188 183.628 C 26.464 181.348, 29 181.595, 29 184 C 29 185.100, 28.422 186, 27.716 186 C 26.236 186, 23 191.057, 23 193.369 C 23 195.062, 25.912 197, 28.456 197 C 30.656 197, 32.494 192.705, 31.247 190.477 C 30.606 189.332, 30.633 187.783, 31.326 185.948 C 32.118 183.848, 32.055 182.771, 31.067 181.580 C 29.423 179.600, 25.632 179.533, 24.036 181.456 M 155.601 181.888 C 154.242 183.390, 153.981 185.130, 154.325 190.389 C 154.562 194.026, 155.317 197.677, 156.001 198.501 C 157.709 200.559, 170.260 200.597, 172.307 198.550 C 174.056 196.801, 174.462 183.261, 172.825 181.289 C 172.133 180.455, 169.207 180, 164.533 180 C 158.722 180, 156.976 180.369, 155.601 181.888 M 304.750 181.080 C 302.469 182.409, 302.511 186.247, 304.829 188.345 C 308.275 191.464, 312 189.726, 312 185 C 312 180.567, 308.697 178.781, 304.750 181.080 M 259 187 L 259 191 264 191 L 269 191 269 187 L 269 183 264 183 L 259 183 259 187 M 161.672 189.250 C 161.015 193.980, 162.604 196.178, 166.034 195.281 C 167.657 194.856, 167.905 194.094, 167.545 190.637 C 167.309 188.361, 167.089 186.162, 167.057 185.750 C 167.026 185.338, 165.934 185, 164.632 185 C 162.605 185, 162.178 185.613, 161.672 189.250 M 164 188.559 C 164 189.416, 164.450 189.840, 165 189.500 C 165.550 189.160, 166 188.459, 166 187.941 C 166 187.423, 165.550 187, 165 187 C 164.450 187, 164 187.702, 164 188.559 M 327 190.904 C 327 192.672, 326.663 193.910, 326.250 193.655 C 325.837 193.401, 323.480 195.175, 321.011 197.599 L 316.521 202.005 324.125 209.609 L 331.729 217.213 339.615 209.008 C 343.952 204.495, 347.500 200.447, 347.500 200.013 C 347.500 199.578, 345.088 196.672, 342.141 193.555 C 337.206 188.337, 336.645 188.011, 335.062 189.444 C 332.856 191.440, 331.113 191.412, 328.829 189.345 C 327.093 187.774, 327 187.854, 327 190.904 M 26.122 191.353 C 24.906 192.818, 25.596 194, 27.667 194 C 29.156 194, 29.492 191.422, 28.113 190.570 C 27.626 190.269, 26.730 190.621, 26.122 191.353 M 163.694 191.639 C 162.895 192.438, 163.798 194, 165.059 194 C 165.577 194, 166 193.325, 166 192.500 C 166 190.954, 164.820 190.513, 163.694 191.639 M 257.755 195.500 C 258.018 196.875, 258.406 198, 258.617 198 C 258.827 198, 259 196.875, 259 195.500 C 259 194.125, 258.612 193, 258.139 193 C 257.665 193, 257.492 194.125, 257.755 195.500 M 329.250 196.662 C 327.532 197.356, 327.673 202.484, 329.452 203.960 C 331.250 205.452, 334.682 204.463, 335.954 202.087 C 337.839 198.563, 333.414 194.982, 329.250 196.662 M 281.262 202.647 L 281.024 208 285.047 208 C 288.722 208, 288.980 207.832, 288.030 206.056 C 287.457 204.986, 286.505 203.812, 285.914 203.447 C 285.322 203.081, 284.087 201.547, 283.169 200.038 L 281.500 197.294 281.262 202.647 M 90.974 199.250 C 90.163 207.185, 90.162 216, 90.972 216 C 91.595 216, 92 212.653, 92 207.500 C 92 202.825, 91.775 199, 91.500 199 C 91.225 199, 90.988 199.113, 90.974 199.250 M 241 200 C 241 200.550, 241.450 201, 242 201 C 242.550 201, 243 200.550, 243 200 C 243 199.450, 242.550 199, 242 199 C 241.450 199, 241 199.450, 241 200 M 125.327 203.882 C 125.500 206.983, 125.179 208.020, 124.028 208.079 C 123 208.132, 122.909 208.323, 123.750 208.662 C 124.438 208.940, 125 210.479, 125 212.083 C 125 214.876, 126.555 216.338, 126.771 213.750 C 127.077 210.103, 127.062 208.152, 126.701 204.736 C 126.152 199.523, 125.045 198.835, 125.327 203.882 M 248.005 204.250 L 248 208 252.500 208 L 257 208 257 203.991 L 257 199.981 252.505 200.241 C 248.024 200.499, 248.010 200.512, 248.005 204.250 M 259 203.945 L 259 208 264.060 208 L 269.121 208 268.810 204.250 C 268.503 200.536, 268.454 200.497, 263.750 200.195 L 259 199.890 259 203.945 M 232.703 205.531 C 230.952 207.937, 230.959 208, 232.953 208 C 234.470 208, 235 207.352, 235 205.500 C 235 202.451, 234.945 202.452, 232.703 205.531 M 106.750 208.662 C 107.438 208.940, 108.563 208.940, 109.250 208.662 C 109.938 208.385, 109.375 208.158, 108 208.158 C 106.625 208.158, 106.063 208.385, 106.750 208.662 M 67.923 210.250 C 67.290 212.319, 67.364 214, 68.088 214 C 68.590 214, 69 213.100, 69 212 C 69 210.392, 68.252 209.176, 67.923 210.250 M 33.994 236.934 C 29.738 238.229, 24.703 241.146, 22.880 243.374 C 19.963 246.939, 17.684 255.677, 18.368 260.672 C 19.299 267.463, 23.053 274.086, 27.907 277.500 L 32.172 280.500 173.336 280.774 C 331.941 281.083, 319.601 281.669, 326.806 273.483 C 334.941 264.241, 335.039 251.320, 327.037 242.927 C 320.036 235.585, 329.067 235.990, 174.568 236.086 C 98.631 236.133, 35.372 236.515, 33.994 236.934 M 76.491 250.021 C 71.008 252.067, 69.027 258.256, 72.296 263.122 C 74.159 265.895, 75.291 266.554, 78.619 266.800 C 81.309 266.998, 83.094 266.592, 83.923 265.593 C 85.802 263.329, 84.370 262.066, 80.615 262.675 C 77.923 263.112, 76.961 262.782, 75.708 260.994 C 74.672 259.514, 74.418 258.054, 74.949 256.635 C 75.598 254.904, 76.573 254.500, 80.110 254.500 C 83.468 254.500, 84.549 254.098, 84.809 252.750 C 84.995 251.787, 84.998 251, 84.817 251 C 84.635 251, 83.136 250.612, 81.484 250.139 C 79.833 249.665, 77.586 249.612, 76.491 250.021 M 36 258.500 L 36 267 41.300 267 C 44.215 267, 47.140 266.460, 47.800 265.800 C 49.172 264.428, 49.412 260.373, 48.167 259.603 C 47.708 259.320, 47.535 257.714, 47.782 256.035 C 48.432 251.605, 46.595 250, 40.878 250 L 36 250 36 258.500 M 53 256.500 C 53 264.258, 54.944 267, 60.443 267 C 65.277 267, 67 264.182, 67 256.277 C 67 250.667, 66.788 250, 65 250 C 63.230 250, 63 250.667, 63 255.800 C 63 262.285, 61.730 264.461, 58.847 262.918 C 57.368 262.127, 57 260.741, 57 255.965 C 57 250.667, 56.776 250, 55 250 C 53.205 250, 53 250.667, 53 256.500 M 89 258.500 C 89 266.333, 89.157 267, 91 267 C 92.556 267, 93 266.333, 93 264 C 93 260.176, 94.230 260.202, 97.273 264.090 C 98.949 266.231, 100.374 267.075, 101.916 266.840 C 104.048 266.514, 103.988 266.321, 100.480 262.235 L 96.819 257.970 100.097 254.237 C 102.914 251.028, 103.123 250.455, 101.582 250.158 C 100.566 249.962, 98.318 251.238, 96.394 253.102 L 93 256.392 93 253.196 C 93 250.667, 92.583 250, 91 250 C 89.157 250, 89 250.667, 89 258.500 M 107.667 250.667 C 107.300 251.033, 107 254.858, 107 259.167 L 107 267 114 267 C 119.293 267, 121 266.663, 121 265.617 C 121 264.101, 118.032 263.035, 113.750 263.014 C 112.237 263.006, 111 262.599, 111 262.108 C 111 260.984, 115.768 259.738, 117.046 260.528 C 117.571 260.853, 118 260.220, 118 259.122 C 118 257.613, 117.226 257.050, 114.827 256.813 C 109.613 256.298, 110.218 254.157, 115.677 253.807 C 119.309 253.575, 120.563 253.073, 120.814 251.750 C 121.103 250.231, 120.302 250, 114.740 250 C 111.216 250, 108.033 250.300, 107.667 250.667 M 124.187 251.750 C 124.370 252.713, 125.528 253.644, 126.760 253.820 C 128.815 254.113, 129 254.671, 129 260.570 C 129 266.333, 129.207 267, 131 267 C 132.795 267, 133 266.333, 133 260.500 L 133 254 136 254 C 138.333 254, 139 253.556, 139 252 C 139 250.176, 138.333 250, 131.427 250 C 124.754 250, 123.893 250.208, 124.187 251.750 M 144.200 251.200 C 142.626 252.774, 142.661 257.473, 144.256 258.797 C 144.946 259.370, 146.746 260.149, 148.256 260.528 C 151.099 261.242, 151.762 262.411, 149.956 263.527 C 149.382 263.882, 147.867 263.488, 146.591 262.651 C 144.859 261.517, 143.981 261.419, 143.135 262.265 C 141.470 263.930, 141.715 264.549, 144.547 265.839 C 153.530 269.932, 159.569 261.977, 150.750 257.668 C 146.288 255.488, 145.757 253.501, 149.854 254.321 C 153.266 255.003, 155.511 253.321, 153.854 251.324 C 152.483 249.672, 145.814 249.586, 144.200 251.200 M 168 257.500 C 168 261.625, 167.887 265.337, 167.750 265.750 C 167.613 266.163, 170.575 266.634, 174.332 266.798 C 180.454 267.064, 181.129 266.908, 180.823 265.298 C 180.562 263.924, 179.365 263.428, 175.741 263.195 C 172.414 262.981, 171 262.459, 171 261.445 C 171 260.460, 172.115 260, 174.500 260 C 176.944 260, 178 259.548, 178 258.500 C 178 257.452, 176.944 257, 174.500 257 C 172.056 257, 171 256.548, 171 255.500 C 171 254.389, 172.167 254, 175.500 254 C 179.333 254, 180 253.704, 180 252 C 180 250.222, 179.333 250, 174 250 L 168 250 168 257.500 M 185 250.552 C 185 250.855, 185.993 252.830, 187.207 254.939 L 189.415 258.775 186.693 262.887 C 184.163 266.710, 184.110 267, 185.929 267 C 187.050 267, 188.655 265.699, 189.684 263.957 L 191.482 260.914 194.054 264.067 C 195.668 266.044, 197.325 267.084, 198.501 266.858 C 200.156 266.539, 199.984 266.051, 197.035 262.692 L 193.694 258.888 196.826 254.444 C 199.875 250.118, 199.899 250, 197.729 250.003 C 196.376 250.005, 194.723 251.165, 193.522 252.957 L 191.545 255.909 189.674 252.954 C 188.074 250.427, 185 248.847, 185 250.552 M 204 258.500 C 204 266.333, 204.157 267, 206 267 C 207.429 267, 208 266.333, 208 264.667 C 208 262.750, 208.526 262.333, 210.947 262.333 C 214.854 262.333, 217 260.399, 217 256.878 C 217 252.543, 213.857 250, 208.500 250 L 204 250 204 258.500 M 221 258.500 L 221 267 227 267 C 232.333 267, 233 266.778, 233 265 C 233 263.333, 232.333 263, 229 263 L 225 263 225 256.500 C 225 250.667, 224.795 250, 223 250 C 221.157 250, 221 250.667, 221 258.500 M 238.455 252.455 C 233.272 257.638, 236.854 267, 244.020 267 C 248.281 267, 250.500 265.622, 251.976 262.058 C 255.637 253.220, 245.143 245.767, 238.455 252.455 M 257 258.500 C 257 266.333, 257.157 267, 259 267 C 260.467 267, 261 266.333, 261 264.500 C 261 263.037, 261.574 262, 262.385 262 C 263.147 262, 264.507 263.125, 265.408 264.500 C 266.309 265.875, 267.936 267, 269.023 267 C 271.400 267, 271.451 266.618, 269.477 263.606 C 268.114 261.525, 268.114 261.150, 269.477 260.019 C 271.606 258.253, 271.375 254.375, 269 252 C 267.533 250.533, 265.667 250, 262 250 L 257 250 257 258.500 M 275 258.500 L 275 267 281.573 267 C 287.293 267, 288.104 266.773, 287.815 265.250 C 287.572 263.968, 286.331 263.417, 283.178 263.189 C 280.392 262.988, 279.017 262.459, 279.279 261.689 C 279.502 261.035, 280.881 260.591, 282.342 260.703 C 284.381 260.859, 285 260.451, 285 258.953 C 285 257.450, 284.309 257, 282 257 C 277.071 257, 278.170 254.175, 283.241 253.807 C 286.335 253.583, 287.573 253.027, 287.815 251.750 C 288.104 250.227, 287.293 250, 281.573 250 L 275 250 275 258.500 M 292 258.500 C 292 266.333, 292.157 267, 294 267 C 295.467 267, 296 266.333, 296 264.500 C 296 262.739, 296.544 262, 297.839 262 C 298.851 262, 300.192 263.125, 300.818 264.500 C 302.170 267.468, 306.731 268.204, 305.462 265.250 C 304.618 263.284, 304.635 261.896, 305.558 257.349 C 306.517 252.625, 303.460 250, 297 250 L 292 250 292 258.500 M 40 255.094 C 40 256.333, 40.699 257, 42 257 C 43.100 257, 44 256.377, 44 255.617 C 44 254.856, 43.100 253.998, 42 253.710 C 40.517 253.322, 40 253.680, 40 255.094 M 208 256.500 C 208 258.500, 208.500 259, 210.500 259 C 212.500 259, 213 258.500, 213 256.500 C 213 254.500, 212.500 254, 210.500 254 C 208.500 254, 208 254.500, 208 256.500 M 241.200 255.200 C 238.395 258.005, 240.508 263, 244.500 263 C 247.180 263, 249 261.180, 249 258.500 C 249 255.820, 247.180 254, 244.500 254 C 243.345 254, 241.860 254.540, 241.200 255.200 M 261 256.500 C 261 258.782, 261.366 259.091, 263.750 258.816 C 265.728 258.589, 266.500 257.938, 266.500 256.500 C 266.500 255.062, 265.728 254.411, 263.750 254.184 C 261.366 253.909, 261 254.218, 261 256.500 M 296 256.566 C 296 258.776, 296.382 259.089, 298.750 258.816 C 300.719 258.590, 301.591 257.861, 301.820 256.250 C 302.091 254.336, 301.681 254, 299.070 254 C 296.441 254, 296 254.369, 296 256.566 M 40 261.430 C 40 262.451, 40.903 263, 42.583 263 C 45.716 263, 45.373 260.652, 42.172 260.180 C 40.729 259.968, 40 260.388, 40 261.430 M 127.452 297.412 C 126.485 298.119, 125.952 299.616, 126.155 301.056 C 126.425 302.969, 127.178 303.566, 129.622 303.804 C 131.827 304.018, 132.936 303.610, 133.395 302.413 C 134.959 298.339, 130.879 294.906, 127.452 297.412 M 143.410 298.375 C 142.211 301.498, 143.424 303.500, 146.514 303.500 C 149.165 303.500, 149.500 303.164, 149.500 300.500 C 149.500 297.969, 149.069 297.450, 146.744 297.183 C 144.986 296.981, 143.779 297.412, 143.410 298.375 M 177 298.110 C 175.765 298.998, 175.834 299.080, 177.391 298.571 C 179.014 298.042, 179.098 298.177, 177.984 299.519 C 176.918 300.804, 176.919 301.302, 177.989 302.292 C 179.012 303.239, 179.141 303.230, 178.588 302.250 C 178.160 301.492, 178.472 301, 179.382 301 C 180.207 301, 181.203 300.480, 181.595 299.845 C 182.070 299.077, 181.866 298.965, 180.985 299.510 C 180.023 300.104, 179.835 299.872, 180.299 298.664 C 181.030 296.759, 179.285 296.466, 177 298.110 M 195 298.590 C 195 299.490, 194.526 299.825, 193.845 299.405 C 193.114 298.952, 192.963 299.131, 193.435 299.894 C 194.010 300.825, 194.554 300.811, 195.839 299.832 C 196.753 299.135, 197.632 298.494, 197.793 298.407 C 197.954 298.319, 197.392 297.981, 196.543 297.655 C 195.567 297.280, 195 297.624, 195 298.590 M 207.503 298.990 C 206.651 301.676, 208.692 304.187, 211.412 303.798 C 212.999 303.572, 213.500 302.780, 213.500 300.500 C 213.500 297.994, 213.061 297.449, 210.836 297.192 C 208.850 296.962, 208.001 297.420, 207.503 298.990 M 223.384 299.607 C 222.647 302.542, 224.262 304.170, 227.500 303.756 C 228.958 303.569, 229.585 302.619, 229.813 300.250 C 230.105 297.226, 229.915 297, 227.082 297 C 224.636 297, 223.910 297.512, 223.384 299.607 M 239.384 298.442 C 238.228 301.454, 239.449 303.500, 242.405 303.500 C 245.990 303.500, 247.959 300.860, 246.070 298.584 C 244.427 296.605, 240.124 296.513, 239.384 298.442 M 255.667 297.667 C 255.300 298.033, 255.012 299.496, 255.027 300.917 L 255.053 303.500 256.758 300.750 C 258.618 297.751, 259.501 297.384, 260.595 299.155 C 261.021 299.844, 260.871 300.039, 260.224 299.638 C 259.627 299.269, 258.887 299.374, 258.580 299.870 C 258.274 300.366, 258.870 300.994, 259.905 301.265 C 261.250 301.617, 261.697 301.292, 261.470 300.129 C 261.296 299.233, 261.119 298.163, 261.077 297.750 C 260.982 296.821, 256.580 296.754, 255.667 297.667 M 257.333 302.500 C 257.333 303.220, 257.933 303.579, 258.667 303.298 C 259.400 303.016, 260 302.657, 260 302.500 C 260 302.343, 259.400 301.984, 258.667 301.702 C 257.933 301.421, 257.333 301.780, 257.333 302.500" stroke="none" fill="#0c243c" fill-rule="evenodd"/></svg>